<?xml version="1.0" encoding="UTF-8" standalone="no"?><!DOCTYPE svg PUBLIC "-//W3C//DTD SVG 1.1//EN" "http://www.w3.org/Graphics/SVG/1.1/DTD/svg11.dtd"><svg width="100%" height="100%" viewBox="0 0 900 600" version="1.1" xmlns="http://www.w3.org/2000/svg" xmlns:xlink="http://www.w3.org/1999/xlink" xml:space="preserve" style="fill-rule:evenodd;clip-rule:evenodd;stroke-linejoin:round;stroke-miterlimit:1.41421;" fill="#fff"><path d="M699.596,304.592c0.873,-1.063 2.813,0.095 2.809,1.678c-0.003,1.339 3.512,3.675 13.994,9.302c12.898,6.92 13.707,7.874 9.823,11.55l-1.898,1.796l-0.043,18.652c-0.033,14.916 0.157,18.648 0.954,18.648c3.315,0 5.647,4.697 3.439,6.922c-2.015,2.029 -2.005,2.361 0.43,16.792c1.1,6.521 2.314,13.958 2.695,16.527c0.383,2.569 1.348,8.39 2.145,12.934c0.798,4.544 2.15,12.628 3.006,17.964c0.857,5.336 2.376,14.551 3.376,20.48c1.001,5.927 2.687,16.113 3.749,22.635c4.459,27.388 8.542,51.541 9.085,53.713c0.983,3.938 4.783,2.087 4.794,-2.338c0.004,-2.172 0.349,-3.991 0.767,-4.041c0.416,-0.048 1.183,-0.129 1.704,-0.179c1.08,-0.102 1.659,-3.646 2.513,-15.361c0.441,-6.083 0.843,-8.083 1.62,-8.083c0.57,0 1.027,0.404 1.021,0.899c-0.036,2.318 4.79,22.732 5.301,22.433c1.935,-1.133 2.991,0.684 2.98,5.128l-0.01,4.596l19.698,0l-0.018,7.717c2.31,2.314 4.615,4.634 6.937,6.937c0,11.116 -0.001,22.233 0,33.349c0.31,0.228 0.582,0.502 0.807,0.811c0.286,0.724 0.183,1.505 0.191,2.263c0.004,2.773 0,5.547 0.002,8.321l2.094,0c1.965,-1.975 3.948,-3.929 5.902,-5.912c0.005,-3.25 0,-6.501 0.001,-9.752c0.01,-0.835 -0.083,-1.694 0.199,-2.497c0.436,0.003 0.869,0.003 1.301,0.001c0.006,-0.993 -0.012,-1.986 0.015,-2.979c0.496,-0.011 0.99,-0.016 1.483,-0.018c0.005,-1.278 0,-2.556 0.001,-3.834c0.335,-0.001 0.669,-0.001 1,-0.003c0.014,-1.108 -0.018,-2.218 0.007,-3.326c0.005,-0.245 0.275,-0.381 0.49,-0.343c0.856,0.003 1.713,0.003 2.567,0.012c0.103,0.056 0.307,0.169 0.408,0.226c0.009,1.198 -0.013,2.398 0.025,3.594c0.262,0.005 0.522,-0.012 0.775,0.033c0.277,0.094 0.229,0.402 0.232,0.629c0.013,0.887 -0.042,1.777 0.013,2.665c0.313,0.357 0.895,0.108 1.315,0.177c0.001,4.833 -0.002,9.665 0.001,14.497c0.664,0.002 1.325,0.003 1.987,0.012c0.041,0.971 -0.029,1.946 0.031,2.915c0.397,0.485 1.165,0.139 1.715,0.237c0.558,0.278 1.008,0.718 1.396,1.198c0.765,0.815 1.581,1.581 2.374,2.367c-0.013,-5.463 -0.006,-10.928 -0.003,-16.391c0.5,-0.003 0.998,-0.003 1.496,-0.003c0,-0.612 0.002,-1.222 0,-1.833c1.223,0 2.444,-0.002 3.664,0.002c0.002,0.609 0.003,1.219 0.002,1.831c0.556,0 1.111,0 1.664,0.001c0.005,3.221 0,6.442 0.002,9.662l3.665,0c-0.005,-1.496 0.015,-2.992 -0.013,-4.486c0.63,-0.285 1.341,-0.055 2.004,-0.129c0.302,0.045 0.733,-0.13 0.927,0.179c-0.04,0.423 -0.102,0.844 -0.095,1.271c0.56,-0.002 1.118,0 1.676,0c0,1.065 0.002,2.128 -0.002,3.192c0.835,0.077 1.671,0.015 2.506,0.028c0.971,-0.028 1.948,0.087 2.912,-0.053c0.993,-1.048 2.078,-2.016 3.046,-3.087c0.498,-0.933 -0.083,-2.079 0.373,-3.024c0.67,-0.313 0.982,-1.05 1.59,-1.453c0.18,-0.236 0.371,-0.463 0.574,-0.678c-0.004,-0.551 -0.004,-1.101 0.006,-1.651c0.056,-0.11 0.168,-0.328 0.224,-0.438c0.755,0.008 1.512,0.008 2.266,0c0,-0.55 0.002,-1.1 0.004,-1.65c1.219,-0.015 2.439,-0.023 3.659,0.009c0.003,0.546 0.006,1.093 0.003,1.641c0.493,0.002 0.986,0.003 1.476,-0.013c0.037,0.091 0.107,0.273 0.142,0.364c-0.087,1.162 0.033,2.33 -0.08,3.491c-0.137,1.604 0.068,3.211 0.041,4.818c0.007,0.227 0.042,0.454 0.077,0.677c0.615,-0.012 1.229,-0.007 1.843,-0.005c0.016,1.328 -0.03,2.658 0.018,3.985c-0.005,0.364 0.373,0.51 0.555,0.773c0.245,0.199 0.465,0.422 0.666,0.662c0.379,0.401 0.748,0.808 1.187,1.148c0.191,0.255 0.418,0.481 0.681,0.663c0.043,0.293 0.323,0.281 0.555,0.315c0.008,-6.182 0,-12.363 0.003,-18.544c1.476,-0.019 2.953,0.033 4.425,-0.02c0.056,-0.055 0.166,-0.165 0.22,-0.22c0.079,-0.672 -0.036,-1.35 0.04,-2.021c0.055,-0.055 0.165,-0.165 0.222,-0.22c2.018,-0.035 4.042,-0.015 6.061,-0.004c0.217,0.179 0.425,0.365 0.604,0.579c0.175,0.16 0.346,0.321 0.519,0.478c0.24,0.315 0.572,0.541 0.809,0.858c0.249,0.195 0.473,0.418 0.668,0.665c0.193,0.16 0.349,0.368 0.583,0.471c0.013,0.218 0.023,0.438 0.035,0.658c0.238,0.388 0.127,0.857 0.145,1.287c-0.005,3.717 0,7.434 -0.002,11.151c0.853,0.022 1.708,-0.043 2.558,0.027c0.29,-0.009 0.398,0.24 0.505,0.451c0.051,0.012 0.153,0.034 0.205,0.044c0.158,0.309 0.488,0.483 0.631,0.806c0.645,0.01 1.288,0.003 1.931,0.007c0.003,1.331 0,2.664 0.002,3.997c1.754,-0.015 3.51,0.03 5.261,-0.02c0.055,-0.055 0.164,-0.167 0.217,-0.224c0.045,-2.582 0.015,-5.169 0.01,-7.754c1.226,-0.001 2.451,0.004 3.676,0c0.001,-8.164 0,-16.328 0,-24.492c2.031,-0.002 4.063,0.003 6.094,-0.002c0.364,0.435 0.758,0.842 1.148,1.253c0.318,0.294 0.773,0.568 0.748,1.063c0.019,2.506 0,5.01 0.007,7.516c0.885,-0.011 1.77,0.022 2.652,-0.006c0.247,0.006 0.385,-0.269 0.349,-0.484c-0.004,-7.279 -0.002,-14.557 -0.002,-21.836c1.711,0 3.421,-0.002 5.13,0.002c0.037,-0.077 0.112,-0.23 0.148,-0.307c-0.183,-1.228 -0.061,-2.478 -0.035,-3.715c0.25,0.03 0.533,0.018 0.703,0.233c1.955,1.934 3.882,3.892 5.835,5.828c0.293,0.325 0.79,0.61 0.718,1.116c-0.011,11.049 0.007,22.097 -0.01,33.145c0.267,0.101 0.54,0.201 0.828,0.19c1.005,0 2.008,-0.007 3.011,-0.004c-0.002,-1.722 0.007,-3.443 -0.007,-5.165c-0.006,-0.34 0.052,-0.674 0.134,-1.001c0.348,0.002 0.694,0.002 1.039,0.002c0.002,-3.111 -0.001,-6.22 0.002,-9.331c0.695,0 1.389,0.002 2.084,0c0.352,-0.34 0.69,-0.694 0.98,-1.088c0.178,-0.133 0.356,-0.266 0.53,-0.403c1.664,-0.018 3.33,-0.003 4.995,-0.008c0.426,0.511 1.013,0.864 1.391,1.418c0.012,0.078 0.038,0.233 0.05,0.309c0.213,0.39 0.12,0.844 0.135,1.267c-0.007,3.728 0,7.459 -0.003,11.189c1.276,0.059 2.556,0.059 3.834,0.005c0.106,0.257 0.19,0.524 0.169,0.807c-0.008,1.776 -0.004,3.554 -0.004,5.331l5.664,0c0.002,-8.886 0,-17.771 0,-26.656c2.28,-0.007 4.559,0.005 6.837,-0.008c0.236,-0.002 0.533,-0.024 0.641,0.245c0.06,0.644 0.007,1.294 0.015,1.942c0.557,0.065 1.12,0.054 1.674,0.142c-0.008,8.834 -0.003,17.668 -0.003,26.501c0.648,0 1.295,0.005 1.94,-0.006c-0.195,0.711 -0.077,1.453 -0.114,2.181c0.02,0.276 -0.078,0.659 0.244,0.804c1.253,0.054 2.509,0.002 3.762,0.02c-0.07,-1.334 0.165,-2.669 0.005,-3.998c-0.005,-0.284 -0.095,-0.672 0.235,-0.813c0.473,-0.052 0.951,-0.017 1.426,-0.019c0.001,-2.166 -0.002,-4.333 0,-6.499c0.611,0 1.223,-0.002 1.834,-0.002c0.004,-0.883 -0.011,-1.766 0.018,-2.649c0.577,-0.125 1.375,0.24 1.793,-0.255c0.06,-0.65 0.005,-1.305 0.017,-1.954c1.439,-0.094 2.899,-0.132 4.335,0.023c0,0.445 0,0.891 0,1.338l2.666,0c0.002,2.111 -0.002,4.22 0.002,6.329c0.994,-0.001 1.989,0.014 2.982,-0.01c0.035,-2.384 0.005,-4.768 0.015,-7.151c1.258,0.004 2.514,-0.016 3.77,0.012c0.584,0.573 1.082,1.271 1.825,1.653c1.251,0 2.504,0 3.757,0c-0.037,3.917 -0.035,7.841 -0.002,11.758c0.43,0.493 1.228,0.135 1.813,0.238c0,0.665 0,1.331 0,1.999l7.498,0c0.001,-4.665 -0.002,-9.328 0.001,-13.992c0.334,-0.001 0.667,-0.003 1,-0.005c0.027,-0.669 -0.13,-1.388 0.21,-2.002c1.155,0.011 2.309,0.001 3.466,0.005c-0.017,0.611 -0.021,1.224 0.051,1.834c0.513,0.08 1.222,-0.232 1.583,0.235c0.055,0.545 0.01,1.095 0.02,1.643c0.267,0.013 0.533,0.026 0.798,0.04c0.08,4.078 0.01,8.162 0.035,12.242c1.42,-0.016 2.842,0.032 4.26,-0.02c0.055,-0.055 0.165,-0.165 0.219,-0.221c0.053,-1.571 -0.002,-3.148 0.021,-4.72c1.968,0.071 3.937,-0.009 5.905,0.04c0.052,-0.3 0.097,-0.604 0.097,-0.907c-0.012,-5.665 -0.003,-11.331 -0.005,-16.996c0.393,-0.002 0.786,-0.003 1.178,-0.003c-0.003,-0.495 -0.002,-0.988 0.01,-1.483c1.27,-0.033 2.541,-0.008 3.812,-0.015c0.09,0.53 -0.242,1.271 0.238,1.648c0.53,0.051 1.062,0.01 1.593,0.016l0,11.332l3.499,0c0.015,3.697 -0.028,7.396 0.02,11.089c0.055,0.055 0.164,0.165 0.218,0.22c0.708,0.06 1.42,-0.003 2.128,0.025c0.197,-0.594 0.13,-1.224 0.133,-1.837c0.002,-4.166 -0.003,-8.329 0.002,-12.495c0.868,-0.001 1.734,-0.001 2.603,-0.001c0.055,0.11 0.165,0.328 0.219,0.438c0.005,0.296 0.009,0.595 0.012,0.893c0.497,0 0.992,0.002 1.488,0.012c0.02,4.328 0,8.657 0.008,12.985c0.5,0 1,0 1.5,0l0,45.82l-420.866,0l0,-6.941l-233.026,0l0,6.941l-420.867,0l0,-45.82c0.5,0 1,0 1.5,0c0.008,-4.328 -0.012,-8.657 0.008,-12.985c0.497,-0.01 0.992,-0.012 1.488,-0.012c0.003,-0.298 0.007,-0.597 0.012,-0.893c0.055,-0.11 0.165,-0.328 0.22,-0.438c0.868,0 1.734,0 2.602,0.001c0.005,4.166 0,8.329 0.002,12.495c0.003,0.613 -0.063,1.243 0.133,1.837c0.708,-0.028 1.42,0.035 2.128,-0.025c0.055,-0.055 0.163,-0.165 0.218,-0.22c0.049,-3.693 0.005,-7.392 0.02,-11.089l3.499,0l0,-11.332c0.532,-0.006 1.063,0.035 1.593,-0.016c0.48,-0.377 0.148,-1.118 0.238,-1.648c1.272,0.007 2.543,-0.018 3.812,0.015c0.012,0.495 0.014,0.988 0.01,1.483c0.392,0 0.785,0.001 1.178,0.003c-0.001,5.665 0.007,11.331 -0.005,16.996c0,0.303 0.046,0.607 0.097,0.907c1.968,-0.049 3.937,0.031 5.905,-0.04c0.023,1.572 -0.032,3.149 0.022,4.72c0.053,0.056 0.163,0.166 0.218,0.221c1.418,0.052 2.841,0.004 4.26,0.02c0.025,-4.08 -0.045,-8.164 0.035,-12.242c0.265,-0.014 0.532,-0.027 0.798,-0.04c0.01,-0.548 -0.035,-1.098 0.02,-1.643c0.362,-0.467 1.07,-0.155 1.583,-0.235c0.072,-0.61 0.069,-1.223 0.052,-1.834c1.156,-0.004 2.311,0.006 3.465,-0.005c0.34,0.614 0.184,1.333 0.21,2.002c0.334,0.002 0.667,0.004 1,0.005c0.003,4.664 0,9.327 0.002,13.992c2.499,0 4.998,0 7.497,0c0,-0.668 0,-1.334 0,-1.999c0.585,-0.103 1.383,0.255 1.813,-0.238c0.033,-3.917 0.035,-7.841 -0.002,-11.758c1.253,0 2.506,0 3.758,0c0.743,-0.382 1.241,-1.08 1.824,-1.653c1.256,-0.028 2.512,-0.008 3.77,-0.012c0.01,2.383 -0.02,4.767 0.015,7.151c0.993,0.024 1.988,0.009 2.983,0.01c0.003,-2.109 0,-4.218 0.001,-6.329l2.666,0c0,-0.447 0,-0.893 0,-1.338c1.436,-0.155 2.896,-0.117 4.335,-0.023c0.012,0.649 -0.043,1.304 0.017,1.954c0.418,0.495 1.216,0.13 1.793,0.255c0.03,0.883 0.015,1.766 0.018,2.649c0.612,0 1.223,0.002 1.834,0.002c0.002,2.166 -0.001,4.333 0,6.499c0.475,0.002 0.954,-0.033 1.427,0.019c0.33,0.141 0.24,0.529 0.235,0.813c-0.16,1.329 0.075,2.664 0.005,3.998c1.252,-0.018 2.509,0.034 3.762,-0.02c0.321,-0.145 0.223,-0.528 0.243,-0.804c-0.037,-0.728 0.082,-1.47 -0.113,-2.181c0.644,0.011 1.291,0.006 1.939,0.006c0,-8.833 0.005,-17.667 -0.003,-26.501c0.555,-0.088 1.118,-0.077 1.674,-0.142c0.009,-0.648 -0.045,-1.298 0.015,-1.942c0.109,-0.269 0.405,-0.247 0.642,-0.245c2.277,0.013 4.557,0.001 6.836,0.008c0,8.886 -0.002,17.771 0,26.656c1.887,0 3.775,0 5.665,0c0,-1.777 0.003,-3.555 -0.005,-5.331c-0.02,-0.283 0.063,-0.55 0.17,-0.807c1.278,0.054 2.557,0.054 3.834,-0.005c-0.004,-3.73 0.003,-7.461 -0.004,-11.189c0.015,-0.423 -0.078,-0.877 0.135,-1.267c0.012,-0.076 0.039,-0.231 0.05,-0.309c0.378,-0.554 0.965,-0.907 1.391,-1.418c1.665,0.005 3.331,-0.01 4.996,0.008c0.173,0.137 0.351,0.27 0.529,0.403c0.29,0.394 0.629,0.748 0.98,1.088c0.695,0.002 1.39,0 2.084,0c0.004,3.111 0,6.22 0.002,9.331c0.345,0 0.692,0 1.04,-0.002c0.081,0.327 0.14,0.661 0.133,1.001c-0.013,1.722 -0.005,3.443 -0.007,5.165c1.003,-0.003 2.006,0.004 3.011,0.004c0.288,0.011 0.561,-0.089 0.828,-0.19c-0.017,-11.048 0.002,-22.096 -0.01,-33.145c-0.072,-0.506 0.425,-0.791 0.718,-1.116c1.953,-1.936 3.881,-3.894 5.835,-5.828c0.17,-0.215 0.453,-0.203 0.703,-0.233c0.027,1.237 0.148,2.487 -0.035,3.715c0.037,0.077 0.112,0.23 0.148,0.307c1.71,-0.004 3.419,-0.002 5.13,-0.002c0,7.279 0.002,14.557 -0.001,21.836c-0.037,0.215 0.101,0.49 0.348,0.484c0.883,0.028 1.768,-0.005 2.652,0.006c0.007,-2.506 -0.011,-5.01 0.007,-7.516c-0.025,-0.495 0.43,-0.769 0.748,-1.063c0.39,-0.411 0.785,-0.818 1.148,-1.253c2.031,0.005 4.064,0 6.095,0.002c0,8.164 -0.002,16.328 0,24.492c1.224,0.004 2.449,-0.001 3.675,0c-0.005,2.585 -0.035,5.172 0.01,7.754c0.054,0.057 0.162,0.169 0.217,0.224c1.751,0.05 3.507,0.005 5.262,0.02c0.001,-1.333 -0.002,-2.666 0.001,-3.997c0.643,-0.004 1.286,0.003 1.931,-0.007c0.144,-0.323 0.473,-0.497 0.632,-0.806c0.051,-0.01 0.153,-0.032 0.205,-0.044c0.106,-0.211 0.215,-0.46 0.505,-0.451c0.849,-0.07 1.704,-0.005 2.557,-0.027c-0.001,-3.717 0.003,-7.434 -0.001,-11.151c0.018,-0.43 -0.094,-0.899 0.145,-1.287c0.011,-0.22 0.021,-0.44 0.035,-0.658c0.233,-0.103 0.389,-0.311 0.583,-0.471c0.195,-0.247 0.418,-0.47 0.668,-0.665c0.236,-0.317 0.568,-0.543 0.808,-0.858c0.173,-0.157 0.345,-0.318 0.52,-0.478c0.178,-0.214 0.386,-0.4 0.603,-0.579c1.78,-0.01 3.565,-0.027 5.345,-0.006l0.032,-13.65l7.731,0l-0.256,-5.209l-0.255,-5.21l2.448,-0.224l2.449,-0.224l0.237,-15.226l0.239,-15.224l2.423,-0.223c2.256,-0.206 2.436,-0.427 2.658,-3.233l0.237,-3.012l4.363,-0.215c4.113,-0.204 4.337,-0.308 3.933,-1.85c-0.366,-1.398 0.369,-2.14 5.12,-5.149c3.052,-1.934 8.576,-5.531 12.276,-7.994l6.727,-4.482l4.64,2.843c2.552,1.563 7.104,4.215 10.118,5.894c5.429,3.023 5.475,3.074 5.478,6.102c0.002,3.048 0.009,3.055 2.844,3.063c7.516,0.021 8.521,0.539 8.512,4.398c-0.007,3.103 0.177,3.498 1.626,3.498l1.633,0l-0.481,15.781l-0.48,15.78l2.076,-0.393l2.075,-0.394l-0.339,8.505l-0.338,8.507l9.973,0c9.627,0 9.958,-0.05 9.505,-1.438c-1.33,-4.076 -1.293,-11.893 0.063,-13.311c1.318,-1.376 1.303,-1.419 -0.531,-1.419c-2.018,0 -4.29,3.136 -2.871,3.968c1.337,0.787 0.746,3.836 -0.966,4.972c-2.351,1.559 -6.079,1.396 -8.442,-0.369c-3.045,-2.277 -2.543,-3.28 1.609,-3.227l3.599,0.045l-0.229,-3.012c-0.436,-5.749 4.269,-9.632 9.571,-7.897c1.736,0.567 4.787,0.83 7.488,0.645c3.144,-0.217 6.532,0.172 10.919,1.25c13.649,3.351 18.135,2.948 27.06,-2.441c3.498,-2.111 3.823,-2.495 2.469,-2.903c-3.542,-1.066 -0.905,-3.639 2.86,-2.79l2.023,0.456l-2.031,-2.073c-2.036,-2.082 -3.634,-5.227 -3.63,-7.151c0.004,-1.694 1.942,-1.167 3.067,0.836c2.087,3.711 5.217,5.572 6.922,4.112c2.179,-1.867 11.294,-2.256 13.962,-0.595c2.348,1.462 3.95,0.961 8.175,-2.55c1.527,-1.268 2.937,-2.152 3.136,-1.964c0.655,0.624 -2.293,7.173 -4.031,8.952c-2.126,2.176 -2.153,2.67 -0.121,2.168c2.017,-0.502 3.714,0.105 3.711,1.325c-0.004,1.445 -4.485,5.368 -6.132,5.368c-1.183,0 -1.456,0.516 -1.462,2.748c-0.006,2.922 -2.099,5.5 -4.856,5.983c-1.456,0.256 -3.468,5.022 -3.5,8.297c-0.013,1.541 0.239,1.585 10.594,1.797l10.607,0.218l0.056,-25.986l5.613,-5.151l5.613,-5.152l27.922,0.003l27.921,0.004l4.919,2.438l4.919,2.438l0.693,4.386l0.69,4.385l12.612,0l0.049,-21.558l18.372,-0.01c10.105,-0.005 19.088,-0.192 19.965,-0.414c3.139,-0.8 4.218,1.415 3.935,8.073l-0.256,6.007l10.795,-0.001l10.797,-0.001l-0.011,5.03l-0.011,5.029l72.727,0l0.01,-4.671c0.009,-3.672 0.254,-4.671 1.148,-4.671c0.968,0 1.141,-1.916 1.166,-12.934c0.029,-12.29 0.102,-12.934 1.49,-12.934c1.32,0 1.44,-0.482 1.277,-5.131c-0.158,-4.519 -0.01,-5.17 1.26,-5.484c1.322,-0.33 1.426,-1.016 1.268,-8.294c-0.166,-7.498 -0.087,-7.973 1.442,-8.62c1.29,-0.545 1.665,-1.419 1.853,-4.306l0.233,-3.623l3.979,-1.046l3.981,-1.046l0.029,-12.842c0.027,-11.907 0.128,-12.842 1.398,-12.842c1.217,0 1.516,1.384 2.676,12.364c1.548,14.672 0.984,13.505 6.521,13.505l4.475,0l0.494,3.592c0.393,2.862 0.783,3.594 1.911,3.594c1.257,0 1.417,0.6 1.406,5.288c-0.018,8.165 0.674,11.775 2.338,12.187c1.193,0.298 1.42,1.055 1.412,4.733c-0.01,4.191 0.07,4.378 1.883,4.378l1.894,0l-0.032,13.923l-0.031,13.921l2.35,0.447c1.293,0.245 2.656,0.266 3.03,0.047c0.374,-0.219 0.677,1.238 0.673,3.237l-0.008,3.635l7.575,0l0.024,-10.779l13.637,0l0.013,-5.735c0.012,-5.356 0.126,-5.76 1.718,-6.113c0.939,-0.208 5.092,-1.028 9.233,-1.82c4.141,-0.793 7.597,-1.518 7.683,-1.612c0.732,-0.795 2.134,-127.696 1.43,-129.426c-1.712,-4.214 -0.23,-5.379 7.539,-5.924c6.741,-0.472 8.719,0.886 7.456,5.121c-0.635,2.127 -0.655,11.649 -0.082,36.647c0.429,18.574 0.973,44.928 1.212,58.562c0.238,13.635 0.517,25.761 0.619,26.948c0.101,1.185 0.217,3.368 0.259,4.85l0.078,2.693l6.015,0c7.284,0 6.654,-0.992 6.951,10.958l0.245,9.878l2.083,0.002c1.946,0.001 2.083,-0.199 2.091,-3.053c0.004,-1.68 0.515,-7.581 1.135,-13.113c1.141,-10.194 4.106,-38.646 6.214,-59.642c0.635,-6.324 1.854,-17.802 2.71,-25.508c0.857,-7.707 2.256,-20.803 3.111,-29.102c0.856,-8.301 1.954,-18.702 2.439,-23.117l0.885,-8.026l-2.105,-1.721c-2.428,-1.985 -1.944,-3.823 1.46,-5.551c1.14,-0.577 1.955,-1.613 1.957,-2.486c0.029,-17.017 -1.687,-36.044 -3.383,-37.54c-3.766,-3.318 -3.3,-3.936 10.166,-13.468c5.969,-4.225 11.06,-8.23 11.313,-8.904c0.254,-0.674 0.795,-1.632 1.203,-2.132Zm-9.148,186.26c-0.127,-0.102 -4.012,-0.416 -8.644,-0.699l-8.44,-0.516l-0.437,2.782c-0.241,1.53 -0.79,6.178 -1.222,10.327c-0.896,8.61 -3.018,28.494 -3.472,32.516c-0.374,3.32 1.405,3.777 2.096,0.538l0.46,-2.154l18.735,0l0.563,-21.303c0.311,-11.717 0.474,-21.387 0.361,-21.491Zm53.414,18.903c-2.905,-17.765 -3.834,-22.079 -4.748,-22.024c-0.626,0.039 -2.331,0.317 -3.789,0.62c-1.459,0.301 -5.679,0.975 -9.38,1.494l-6.727,0.947l0.423,4.719c0.231,2.597 0.829,10.946 1.328,18.553c0.887,13.575 0.937,13.833 2.598,13.833c2.465,0 4.089,0.732 4.087,1.843c-0.001,0.713 1.553,1.026 5.869,1.18l5.871,0.21l0.231,2.335c0.232,2.328 0.248,2.335 4.441,2.335c4.183,0 4.205,-0.01 3.807,-1.975c-0.221,-1.088 -2.025,-11.918 -4.011,-24.07Zm-161.677,25.326c0,0.397 0.68,0.719 1.514,0.719c0.833,0 1.516,-0.322 1.517,-0.719c0.001,-0.394 -0.681,-0.717 -1.514,-0.717c-0.833,0 -1.516,0.323 -1.517,0.717Zm118.284,-38.178c0,3.017 0.199,10.042 0.438,15.611c0.387,8.945 0.294,10.182 -0.794,10.578c-0.971,0.353 -1.235,1.487 -1.244,5.347c-0.01,4.397 -0.169,4.911 -1.537,5.01c-1.448,0.103 -1.509,-0.227 -1.186,-6.495c0.187,-3.632 0.385,-13.268 0.437,-21.413l0.099,-14.811l1.893,0.345c1.821,0.329 1.894,0.551 1.894,5.828Zm15.15,25.605l-0.491,-8.264c-0.269,-4.545 -0.571,-9.073 -0.673,-10.061c-0.099,-0.988 -0.22,-4.141 -0.266,-7.006c-0.078,-4.796 -0.212,-5.208 -1.687,-5.208c-1.588,0 -1.6,0.132 -1.194,11.676c0.226,6.421 0.42,13.293 0.433,15.268c0.02,3.365 0.144,3.595 1.949,3.595l1.929,0Zm-2.261,-35.211c-0.003,1.052 -0.439,1.797 -1.053,1.797c-0.577,0 -1.208,-0.808 -1.406,-1.797c-0.278,-1.395 -0.043,-1.796 1.052,-1.796c0.999,0 1.41,0.524 1.407,1.796Zm13.575,-0.816c0.169,-0.144 -1.619,-0.262 -3.977,-0.262c-2.452,0 -4.294,0.318 -4.295,0.744c-0.002,0.672 7.398,0.243 8.272,-0.482Zm-26.452,-0.621c-0.002,0.672 -0.717,1.079 -1.896,1.079c-1.178,0 -1.894,-0.407 -1.892,-1.079c0.001,-0.671 0.718,-1.078 1.896,-1.078c1.18,0 1.893,0.407 1.892,1.078Zm-9.847,0c-0.002,0.816 -0.881,1.064 -3.603,1.021l-3.598,-0.058l3.411,-0.927c1.876,-0.509 3.497,-0.969 3.601,-1.02c0.105,-0.052 0.19,0.391 0.189,0.984Zm-0.717,-52.815l1.972,-0.002l-0.199,10.6c-0.112,5.83 -0.428,16.805 -0.706,24.389l-0.505,13.788l-8.119,1.84c-9.652,2.187 -9.085,2.151 -8.704,0.584c0.275,-1.142 3.599,-33.948 4.739,-46.798l0.472,-5.3l4.539,0.449c2.497,0.248 5.426,0.45 6.511,0.45Zm45.004,23.032c-2.412,-14.641 -4.557,-26.612 -4.764,-26.602c-3.554,0.164 -14.409,5.573 -14.413,7.181c-0.003,1.75 1.656,27.121 2.609,39.934l0.436,5.82l9.933,0.451c5.463,0.247 10.081,0.31 10.26,0.14c0.179,-0.169 -1.648,-12.285 -4.061,-26.924Zm-24.165,-17.278c0.234,2.171 0.751,10.575 1.149,18.677c0.398,8.104 0.926,16.915 1.171,19.583c0.41,4.445 0.326,4.85 -1.001,4.85c-1.358,0 -1.451,-0.707 -1.546,-11.678c-0.055,-6.422 -0.307,-17.174 -0.558,-23.891c-0.445,-11.909 -0.073,-15.484 0.785,-7.541Zm-11.669,-3.059c-0.002,-1.087 -0.285,-1.975 -0.629,-1.975c-0.344,0 -0.743,7.679 -0.887,17.064c-0.146,9.388 -0.336,20.058 -0.423,23.714c-0.154,6.426 -0.103,6.647 1.521,6.647c1.197,0 1.605,-0.363 1.419,-1.258c-0.207,-0.997 -0.992,-35.633 -1.001,-44.192Zm11.373,-6.964c-0.007,2.985 -1.131,2.639 -1.191,-0.366c-0.027,-1.364 0.23,-2.314 0.573,-2.111c0.343,0.199 0.621,1.315 0.618,2.477Zm11.65,-1.43c2.331,0.047 2.32,0.061 -0.663,0.952c-1.669,0.497 -3.801,1.295 -4.739,1.774c-1.605,0.817 -1.707,0.731 -1.702,-1.402c0.005,-2.16 0.121,-2.249 2.372,-1.821c1.302,0.246 3.431,0.469 4.732,0.497Zm-23.012,0.31c-0.008,3.282 -1.126,3.281 -1.194,-0.001c-0.027,-1.383 0.231,-2.515 0.576,-2.515c0.342,0 0.622,1.132 0.618,2.516Zm-6.819,0.003c0.003,-0.99 -0.081,-1.787 -0.184,-1.773c-0.104,0.013 -1.044,0.486 -2.086,1.052c-1.043,0.565 -2.578,1.043 -3.412,1.063c-4.04,0.097 -3.126,1.27 1.062,1.359c4.449,0.096 4.617,0.034 4.62,-1.701Zm0.032,-37.727c0.297,0 0.453,1.536 0.348,3.413c-0.105,1.877 -0.23,9.163 -0.279,16.191c-0.079,11.498 -0.22,12.819 -1.414,13.197c-0.729,0.231 -3.492,1.215 -6.139,2.185c-5.835,2.137 -5.452,2.504 -4.622,-4.453c0.377,-3.159 1.222,-11.078 1.877,-17.598c0.653,-6.523 1.391,-13.563 1.634,-15.648l0.444,-3.791l3.807,3.251c2.094,1.79 4.047,3.253 4.344,3.253Zm33.728,12.736c1.855,11.152 3.373,20.533 3.372,20.841c-0.001,0.452 -4.946,0.289 -14.014,-0.461c-0.416,-0.034 -0.777,-0.952 -0.8,-2.039c-0.105,-4.975 -1.965,-29.339 -2.275,-29.821c-0.192,-0.295 -0.025,-0.538 0.371,-0.538c1.254,0 8.372,-6.464 8.936,-8.116c0.735,-2.151 0.607,-2.731 4.41,20.134Zm-16.146,15.828c0.111,2.471 -0.054,4.491 -0.366,4.491c-0.313,-0.002 -0.512,-2.83 -0.44,-6.29c0.132,-6.573 0.462,-5.837 0.806,1.799Zm-11.106,3.6c0.237,-0.227 0.32,-1.493 0.185,-2.813l-0.248,-2.405l-0.475,2.515c-0.472,2.512 -0.281,3.478 0.538,2.703Zm9.995,-19.058c-0.184,0.893 -0.337,0.331 -0.342,-1.25c-0.005,-1.582 0.145,-2.312 0.333,-1.624c0.187,0.686 0.191,1.98 0.009,2.874Z"/></svg>