<svg xmlns="http://www.w3.org/2000/svg" fill-rule="evenodd" viewBox="0 0 501 150" clip-rule="evenodd">
  <path fill="#EB3349" stroke="#000" stroke-opacity=".659" d="M-461.46-133.38c9.63-3.36 19.52-5.93 28.99-9.67 9.753-.913 18.26-5.784 27.448-8.6 4.7-1.99 12.788-5.292 14.843-5.182 2.06-.144 10.3.58 15.31 2.06 9.43-.07 14.68-9.586 25.79-11.204 8.48-5.752 18.69-2.866 28.08-5.19 10.54-.815 17.68-10.37 28.62-9.758 9.38-1.104 19.4-2.96 27.82-7.005 10.4-2.61 17.91-6.39 27.72-7.59 11.14.78 27.26 6.5 36.07-1.4 7.74-4.84 16.4-7.65 24.39-12.03 8.71-2.53 16.57-7.24 24.59-11.22 4.41-1.23 7.76-3.95 10.76-7.13 3-3.19 5.64-6.85 8.63-9.97 8.6-3.72 15.56-9.14 21.9-15.99 4.23-5.02 5.93-12.4 13.71-13.72 6.18-6.14 13.03-11.44 19.56-17.23 2.93-9.03 13.73-11.02 21.24-15.18 4.37-1.95 8.48-2.51 12.58-3.33 4.1.83 8.2 2.68 12.06 5.29 1.38.85 11.67-.79 13.09-.14.9.45 3.59 3.16 6.53 4.41 2.69.36 6.14 1.04 6.51 1.76.75 1.65.71 1.45 1.47 2.48 8.48 3.61 17.32 8.89 20.98 11.37 4.41 1.61 8.77 3.32 13.07 5.18 4.3 1.87 8.54 3.89 12.7 6.1 7.82.63 8.54 12.76 19.72 16.96 7.41 7.86 17.67 11.41 25.15 19.02 9.34 5.17 18.85 8.65 29.96 7.58 7.23.33 15.79 12.36 23.41 17.26 7.51 2.01 15.77 1.09 22.65 6.51 8.07 6.04 15.59 11.31 22.78 18.44 6.07 7.47 14.78 12.03 24.64 9.65 10.38.15 19.71-6.03 30.19-2.2 12.79 1.6 24.74 6.83 36 12.9 8.61 3.18 15.21 11.92 25.18 10.54 12.13.97 24.62 1.15 35.91 6.27 8.76 3.37 18.65 1.68 26.83 6.75 12.99 4.92 16.32 6.45 28.79 12.92 9.96 3.61 24.36 7.44 31.5 13.9 7.98 5.87 17.05 9.47 25.91 13.17 9.26 8.04-19.45 2.79-23.69 3.01-17.6-.39-28.67 8.38-38.28 10.9-10.69 3.72-19.95 4.61-29.34-.27-10.72-3.3-22.11-3.75-33.22-4.52-6.41.63-16.85-5.61-20.98-.6 2.525 9.63 4.24 13.94-8.3 10.25-9.873-3.29-19.303-7.57-28.88-11.58-12.33-3.29-24.2-9.55-37.34-8.27-11.512-.72-22.91.92-34.31 1.38-12.443-.37-25.25-1.57-37.334 2.18-9.97 2.77-20 5.4-29.82 8.47-11.062 7.33-24.98 3.29-37.31 3.22-10.86-.4-21.53-1.83-31.81-5.52-17.97-5.64-36.6-8.45-54.95-12.33-12.12-2.61-24.33-5.35-35.284-11.39-8.23-3.68-16.162-8.01-24.472-11.38-6.823-4.5-17.44-12.7-23.935-3.5-8.91 4.33-19.103 4.25-26.66 11.46-5.4 9.3-14.435 14.64-25.5 12.47-10.24 2.62-20.41.06-30.48-2.03-11.423-2.47-22.444-6.53-34.2-7.29-10.39-2.19-20.95-3.31-31.51-4.4-11.02-1.39-22.872.43-32.94-5.25-11.68-1.65 10.09-11.7-2.76-11.63-13.17-.55-26.93-.21-39.07 5.43-9.77 4.74-23.16-2.82-31.1 5-3.39 9.23-14.54 5.5-21.94 7.28-9.59 4.77-20.36 4.66-30.7 6.38-8.53 1.72-17.25 2.79-25.63-.84-14.22-4.06-28.34-10.452-43.46-9.08-12.19 0-24.36 1.75-36.54.92 8.97-2.484 16.88-7.14 24.18-12.92 1.444-.9 2.93-1.813 4.59-2.26z" transform="matrix(.16 0 0 .2 425.93 115.3)"/>
  <path fill="url(#a)" fill-rule="nonzero" d="M630.18 284.18c-.12-.008-.285.618-.52 1.762-.41 1.98-.77 5.696-.798 8.26-.056 5-1.59 7.49-4.616 7.49-.954 0-1.736.405-1.736.9s-.607.9-1.35.9c-1.79 0-1.706.877.225 2.358 1.377 1.055 1.405 1.32.225 2.11-.743.498-3.438 1.52-5.99 2.27-3.917 1.15-4.568 1.642-4.17 3.16.37 1.42.018 1.81-1.66 1.843-1.172.022-3.346.58-4.83 1.238l-2.7 1.2 2.533 1.01c1.394.56 3.275 1.02 4.18 1.02 2.01 0 2.967 2.11 1.586 3.49-1.31 1.3-.22 2.3 3.95 3.63 3.19 1.02 3.27 1.17 4.28 7.54 3.78 23.99 5.23 48.56 3.82 65-1.68 19.59-3.93 37.35-4.74 37.35-.43 0-.77-12.15-.77-27v-27h-2.25c-2.25 0-2.25 0-2.25-9v-9h-29.7v9c0 8.4-.12 9-1.8 9-1.71 0-1.8.6-1.8 11.7v11.7h-4.45c-2.45 0-4.7.41-5.01.9-.86 1.39-2.25 1.07-2.25-.52 0-1.19-1.03-1.37-6.31-1.12l-6.31.3v-11.43c0-8.87-.28-11.59-1.26-12.15-.7-.39-1.41-1.73-1.58-2.97-.23-1.66-.93-2.32-2.69-2.52-1.31-.15-3.1-1.06-3.97-2.02-2.19-2.41-8.55-2.42-10.06-.01-.6.95-2.01 1.86-3.14 2.03-1.65.23-2.02.81-1.87 2.81.11 1.52-.34 2.72-1.13 3.02-.73.28-1.32 1.48-1.32 2.66 0 1.7-.48 2.15-2.25 2.15-1.8 0-2.25.45-2.25 2.25 0 2.03-.36 2.25-3.6 2.25h-3.6v4.05c0 4.05 0 4.05-1.8 2.25-1.2-1.19-1.81-3-1.81-5.36 0-3.36-.18-3.59-3.17-4.15-1.74-.32-6.09-.36-9.67-.07s-8.44.54-10.79.56l-4.27.03v10.35c0 6.3-.36 10.35-.9 10.35-.59 0-.9-10.5-.9-29.7 0-23.6-.24-29.7-1.16-29.7-.85 0-1.12-1.7-1.02-6.32.07-3.48-.22-6.54-.65-6.81-.43-.26-.79 2.68-.79 6.55-.01 3.87-.31 6.57-.68 6.02-1.17-1.79-10.32-3.17-19.11-2.87-8.35.28-8.56.35-8.87 2.54-.18 1.24-.75 2.52-1.29 2.86-.67.42-.9 9.67-.74 29.93l.23 29.32h-9.07c-8.47 0-9.07.12-9.07 1.8 0 1.56-.6 1.8-4.5 1.8h-4.5v-8.96c0-5 .4-9.2.9-9.51.5-.31.9-1.71.9-3.13 0-2.5-.17-2.59-5.62-3.15-3.1-.32-10.29-.45-15.98-.3-8.65.24-10.3.51-10.05 1.63.17.75.53 4.29.8 7.88l.5 6.52H371.4l-1.37 2.65c-.797 1.55-1.37 5-1.37 8.24 0 5.53-.02 5.57-1.8 3.96-1.445-1.31-1.8-2.78-1.8-7.4 0-9.08-.21-9.25-11.25-9.25-11.24 0-11.25.01-11.25 10.74 0 5.8-.27 7.28-1.35 7.37-.745.06-4.21.16-7.707.22l-6.358.11.135-4.05c.21-6.29.206-6.3-3.1-6.3-1.69 0-3.23-.46-3.42-1.03-.415-1.25-16.3-1.09-16.75.17-.16.45-2.293 1.09-4.742 1.41-2.45.32-4.67.94-4.93 1.37-.264.43-1.673.78-3.13.78-1.99 0-2.646-.42-2.646-1.69 0-3.26-3.905-3.84-20.29-2.98-8.43.44-15.64.46-16.11.03-1.053-.94-5.35-1.01-6.27-.09-.37.37-5.5.53-11.4.36l-10.72-.32-.11 5.72c-.05 3.14-.29 5.01-.51 4.146-.43-1.642-2.19-2.28-7.48-2.683l-3.15-.245-.45-13.95c-.44-13.63-.5-13.96-2.477-14.24-1.116-.16-2.027-.663-2.027-1.124 0-1.36-5.41-.95-6.88.51-.745.75-2.13 1.35-3.09 1.35-1.66 0-1.733.85-1.733 19.8v19.8h-5.4c-5.16 0-5.4.1-5.4 2.25 0 1.24-.41 2.25-.9 2.25-.5 0-.9-2.2-.9-4.89 0-4.27-.255-4.96-2.028-5.53-3.478-1.11-12.725-.43-13.825 1.01-.547.73-1.615 1.32-2.37 1.32-.756 0-2.534.61-3.95 1.35-2.81 1.465-5.206 1.794-4.48.62.748-1.206-2.883-3.76-5.34-3.76-1.244 0-2.5.61-2.78 1.35-.72 1.88-5.14 1.69-6.94-.3-.82-.902-1.49-2.95-1.49-4.55 0-1.71-.37-2.676-.9-2.35-.5.306-.9 1.51-.9 2.68 0 3.607-.97 4.97-3.536 4.97-2.22 0-2.515-.41-3.28-4.55-.46-2.503-1.24-4.553-1.738-4.553-.5 0-1.28 2.05-1.74 4.55l-.84 4.55H118c-5.032 0-12.247.26-16.034.58l-6.888.58v3.47c0 3.09-.24 3.46-2.25 3.46-2.126 0-2.25-.27-2.25-4.95v-4.95H50.1v10.8l-.61 36.368-7.075 5.1.003 1.74h1020.2c-.04-4.1-.04-9.54-.04-17.03v-28.73l-2.7-.6c-1.49-.323-2.71-1.17-2.71-1.87 0-.854-1.01-1.28-3.07-1.28-1.69 0-3.21-.39-3.37-.86-.17-.48-3.54-1.13-7.5-1.44-5.47-.44-8.18-.24-11.25.85-2.23.78-4.97 1.43-6.08 1.44-1.11 0-2.02.41-2.02.91 0 .49-.8.9-1.78.9-1.67 0-1.79.74-2.02 12.37-.21 10.38-.47 12.32-1.59 12.08-.73-.164-5.29-.46-10.14-.67-7.73-.32-9.37-.692-13.476-3.04-8.523-4.864-20.567-4.61-27.625.59-3.236 2.38-3.826 2.497-11.64 2.22l-8.237-.284v-5.82c0-4.337-.344-5.946-1.352-6.33-.74-.29-1.35-1.46-1.35-2.62 0-1.798-.58-2.188-4.047-2.708-3.15-.47-4.05-.98-4.05-2.305 0-1.5-.72-1.694-6.23-1.694-5.78 0-6.26.15-6.52 2.03-.23 1.623-.95 2.08-3.66 2.3l-3.37.28v10.8c0 6.97-.31 10.6-.89 10.242-.53-.33-.9-5.86-.9-13.55v-13h-4.37c-2.4 0-6.85-.26-9.9-.57l-5.53-.58V412.7l-11.62-.59c-6.39-.33-12.27-.35-13.05-.05-1.15.444-1.42 2.086-1.42 8.55v8.007h-3.6c-3.51 0-3.6.073-3.6 3.15 0 2.2-.41 3.155-1.35 3.155-.74 0-1.35-.608-1.35-1.35 0-1.69-6.75-1.77-15.3-.177l-5.85 1.09-.24 18.67-.24 18.67h-8.97v-34.2h-10.8v-3.63c0-2.392-.46-3.802-1.35-4.144-.74-.28-1.35-1.08-1.35-1.77 0-.88-1.19-1.25-4.05-1.25-3.45 0-4.05-.27-4.05-1.8 0-1.46-.6-1.8-3.15-1.8-2.2 0-3.15-.41-3.15-1.35 0-.84-.85-1.35-2.25-1.35-2.08 0-2.25-.32-2.25-4.18 0-5.72-1.36-6.56-10.66-6.6-6.18-.02-7.97.31-10.12 1.84-2.57 1.83-2.61 2.01-2.61 10.37v8.51l-2.05-1.34c-1.72-1.12-2.42-1.15-4.3-.17-2.6 1.36-4.45.99-4.45-.87 0-2-4.47-10.37-5.27-9.87-.39.24-1.45 2.08-2.35 4.09-1.36 3.02-2.08 3.65-4.21 3.65h-2.57V400.9l-2.21-.557c-2.06-.517-2.23-1-2.47-7.074l-.26-6.52-5.62-.27-5.62-.27-.01-8.73c-.01-11.01-.46-12.78-3.24-12.78-1.18 0-2.14-.49-2.14-1.09s-1.24-2.37-2.76-3.94c-1.52-1.57-2.87-3.62-3-4.55-.13-.94-1.1-1.82-2.18-1.98-1.52-.23-1.94.17-1.94 1.85 0 1.21-1.17 3.27-2.7 4.73-1.48 1.42-2.7 3.12-2.7 3.77 0 .7-1.04 1.18-2.55 1.18h-2.56l-.59 18.22c-.33 10.02-.594 25.21-.6 33.75-.002 13.2-.21 15.52-1.352 15.52-1.14 0-1.35-2.1-1.35-13.46 0-10.91-.25-13.6-1.32-14.2-1.05-.59-1.38-3.38-1.58-13.32l-.25-12.58H673.4l-.26 7.76-.26 7.76-3.567.57-3.57.57V408l-2.48-.282-2.474-.284-.2-33.53c-.23-40.244.65-37.42-11.49-36.963l-7.83.29.52-3.15c.283-1.73.523-3.82.53-4.63.01-1.03 1.373-1.81 4.513-2.56 4.86-1.16 6.18-2.27 4.6-3.85-1.89-1.89-.99-3.1 2.67-3.6 2.02-.27 3.937-.75 4.25-1.06.88-.88-1.69-2.21-5.52-2.85-2.78-.46-3.36-.89-3.01-2.23.36-1.38-.61-1.97-5.78-3.51-3.42-1.02-6.21-2.11-6.21-2.42 0-.31.67-1.3 1.49-2.21 1.4-1.54 1.373-1.64-.45-1.64-1.066 0-1.94-.4-1.94-.9s-.59-.9-1.315-.9-2.14-.88-3.15-1.97c-1.53-1.64-1.85-3.25-1.94-9.67-.054-4.08-.13-5.85-.325-5.87h.02zm6.94 44.074c.748.098.7 1.14.35 4.775-.272 2.81-.87 9.49-1.333 14.84-.46 5.35-1.083 9.97-1.383 10.27-.3.3-.545-6.16-.545-14.35 0-14.34.07-14.92 1.87-15.39.44-.12.78-.19 1.03-.16zm-12.44.438c1.03 0 1.333 2.783 1.597 14.625.18 8.043.216 14.794.08 15-.135.206-.255.206-.265 0-.01-.207-.607-6.045-1.325-12.975-1.64-15.843-1.643-16.65-.085-16.65zm1.966 78.375c.2-.207.364 3.742.364 8.775 0 5.5-.36 9.148-.9 9.148-.496 0-.9 1.013-.9 2.25 0 1.238-.438 2.25-.972 2.25-.583 0-.768-.988-.463-2.474.28-1.36.96-6.323 1.51-11.025s1.162-8.71 1.36-8.92zm456.684 60.443c-.72.008-.92 1.29-.92 5.084 0 5.262-.22 4.11-2.38 4.11-1.77 0-2.12.93-2.12-.76 0-1.925-.51-2.21-4.94-2.763-2.71-.33-5.34-.36-5.85-.05-.36.23-.66 2.24-.81 4.97h89.9v-1.76l-17.33-.24c-13.14-.18-17.27-.51-17.1-1.35.12-.61-.79-1.36-2.03-1.67-1.23-.31-2.24-.92-2.24-1.36 0-.44-1.42-.8-3.15-.8-1.74 0-3.15.41-3.15.9s-.52.9-1.15.9c-.64 0-1.84.81-2.68 1.79-1.29 1.51-2.21 1.69-5.82 1.2-2.36-.32-4.83-1.13-5.49-1.79-.67-.66-1.53-1-1.93-.75-.4.25-.92-.28-1.15-1.16-.25-.95-1.98-2.08-4.24-2.75-2.11-.63-4.4-1.36-5.09-1.63-.12-.04-.23-.07-.33-.07z" transform="matrix(.52 0 0 .52 -39.54 -96.16)"/>
  <path fill-rule="nonzero" d="M30.83 30.696c0 1.77-.45 3.346-1.35 4.727-.897 1.367-2.193 2.435-3.885 3.203-1.693.755-3.68 1.133-5.957 1.133-1.9 0-3.497-.14-4.786-.4-1.29-.28-2.63-.74-4.023-1.41v-6.87c1.47.75 3 1.34 4.59 1.77 1.58.41 3.04.62 4.37.62 1.14 0 1.98-.2 2.52-.59.53-.4.8-.92.8-1.54 0-.39-.11-.73-.33-1.02-.21-.3-.56-.6-1.04-.9-.47-.3-1.73-.91-3.79-1.83-1.86-.85-3.26-1.67-4.2-2.46-.93-.8-1.62-1.71-2.07-2.74-.44-1.03-.67-2.25-.67-3.66 0-2.63.95-4.68 2.87-6.15 1.91-1.47 4.54-2.21 7.89-2.21 2.95 0 5.97.68 9.04 2.05l-2.37 5.96c-2.67-1.23-4.98-1.84-6.92-1.84-1 0-1.73.17-2.19.52-.46.35-.68.79-.68 1.31 0 .56.28 1.06.86 1.5.58.44 2.16 1.25 4.72 2.42 2.46 1.1 4.16 2.29 5.11 3.57.97 1.26 1.45 2.86 1.45 4.78zm14.08 9.064c-3.62 0-6.366-.978-8.24-2.93-1.863-1.954-2.794-4.76-2.794-8.42 0-3.67 1.01-6.516 3.027-8.534 2.018-2.018 4.89-3.027 8.613-3.027 2.566 0 4.98.56 7.247 1.68l-2.247 5.64c-.924-.41-1.777-.73-2.558-.96-.78-.25-1.595-.37-2.442-.37-1.237 0-2.194.48-2.87 1.44-.678.96-1.016 2.32-1.016 4.08 0 3.54 1.308 5.31 3.926 5.31 2.24 0 4.388-.65 6.445-1.96v6.08c-1.96 1.3-4.33 1.95-7.09 1.95zm25.92-.392l-1.466-2.93h-.156c-1.03 1.276-2.077 2.15-3.145 2.618-1.067.468-2.447.703-4.14.703-2.083 0-3.724-.63-4.922-1.88-1.19-1.25-1.79-3.01-1.79-5.28 0-2.36.82-4.11 2.46-5.26 1.64-1.16 4.02-1.81 7.13-1.96l3.69-.12v-.32c0-1.82-.89-2.74-2.69-2.74-1.61 0-3.66.54-6.15 1.64l-2.21-5.04c2.58-1.33 5.84-2 9.77-2 2.84 0 5.04.7 6.59 2.11 1.57 1.4 2.35 3.37 2.35 5.9v14.51h-5.3zm-5.665-5c.924 0 1.712-.293 2.363-.88.664-.585.996-1.347.996-2.284v-1.72l-1.758.08c-2.513.09-3.77 1.015-3.77 2.773 0 1.354.724 2.03 2.17 2.03zm16.152-25.39h7.637v30.39h-7.637zM104.97 39.76c-3.685 0-6.55-.978-8.594-2.93-2.03-1.967-3.047-4.76-3.047-8.38 0-3.737.94-6.6 2.83-8.593 1.89-2.006 4.58-3.008 8.08-3.008 3.33 0 5.9.87 7.71 2.61 1.82 1.73 2.73 4.23 2.73 7.5v3.4h-13.65c.05 1.23.5 2.2 1.34 2.91.86.7 2.02 1.05 3.5 1.05 1.34 0 2.57-.13 3.69-.37 1.13-.26 2.36-.7 3.67-1.31v5.49c-1.2.61-2.44 1.03-3.71 1.27-1.28.23-2.8.35-4.57.35zm-.45-17.716c-.898 0-1.653.286-2.265.86-.6.56-.95 1.445-1.055 2.656h6.563c-.026-1.068-.332-1.92-.918-2.56-.573-.637-1.348-.956-2.324-.956zm31.62 10.526c0 2.37-.807 4.16-2.422 5.372-1.614 1.21-3.932 1.817-6.953 1.817-1.64 0-3.066-.1-4.277-.28-1.21-.17-2.448-.49-3.71-.96v-6.11c1.184.52 2.48.95 3.886 1.29 1.42.33 2.682.5 3.79.5 1.652 0 2.48-.38 2.48-1.14 0-.39-.235-.74-.704-1.04-.456-.32-1.797-.91-4.023-1.8-2.032-.84-3.45-1.78-4.258-2.83-.81-1.07-1.22-2.42-1.22-4.05 0-2.06.79-3.66 2.38-4.81 1.59-1.15 3.83-1.72 6.74-1.72 1.45 0 2.82.16 4.1.49 1.29.31 2.62.77 4 1.38l-2.07 4.92c-1.02-.46-2.09-.84-3.23-1.15-1.13-.33-2.06-.49-2.77-.49-1.25 0-1.88.3-1.88.91 0 .38.21.71.64.98.44.26 1.7.8 3.79 1.62 1.54.64 2.7 1.26 3.45 1.87.77.61 1.33 1.34 1.68 2.17.36.82.54 1.82.54 3.01zm35.76-4.315c0 3.62-.977 6.445-2.93 8.477-1.94 2.018-4.66 3.027-8.164 3.027-3.36 0-6.035-1.04-8.027-3.11-1.98-2.07-2.97-4.87-2.97-8.4 0-3.61.97-6.41 2.91-8.4 1.95-2.01 4.68-3.01 8.2-3.01 2.17 0 4.09.46 5.76 1.38 1.66.92 2.95 2.25 3.85 3.98.91 1.72 1.36 3.73 1.36 6.03zm-14.336 0c0 1.9.254 3.353.762 4.356.508.99 1.36 1.49 2.558 1.49 1.185 0 2.02-.49 2.5-1.48.495-1 .743-2.45.743-4.35 0-1.89-.248-3.31-.743-4.27-.494-.96-1.34-1.44-2.54-1.44-1.17 0-2.01.49-2.518 1.45-.508.95-.762 2.38-.762 4.28zm32.186-5.293h-4.707v16.406h-7.637V22.962h-2.93v-3.75l3.087-1.875v-.37c0-2.918.592-5.014 1.777-6.29 1.198-1.276 3.112-1.914 5.742-1.914 1.016 0 1.973.078 2.87.234.913.156 1.967.43 3.165.82l-1.64 4.942c-.938-.27-1.856-.4-2.754-.4-.586 0-1.016.18-1.29.54-.26.35-.39.93-.39 1.74v.58h4.707v5.72zm32.56 7.734c0 1.77-.45 3.346-1.348 4.727-.898 1.367-2.194 2.435-3.886 3.203-1.693.755-3.68 1.133-5.957 1.133-1.91 0-3.5-.14-4.79-.4-1.29-.28-2.63-.74-4.03-1.41v-6.87c1.47.75 3 1.34 4.59 1.77 1.58.41 3.04.62 4.37.62 1.14 0 1.98-.2 2.52-.59.53-.4.8-.92.8-1.54 0-.39-.11-.73-.33-1.02-.21-.3-.56-.6-1.04-.9-.47-.3-1.73-.91-3.79-1.83-1.86-.85-3.26-1.67-4.2-2.46-.93-.8-1.62-1.71-2.07-2.74-.45-1.03-.67-2.25-.67-3.66 0-2.63.95-4.68 2.87-6.15 1.91-1.47 4.54-2.21 7.89-2.21 2.95 0 5.97.68 9.04 2.05l-2.37 5.96c-2.67-1.23-4.98-1.84-6.92-1.84-1 0-1.73.17-2.19.52-.46.35-.68.79-.68 1.31 0 .56.28 1.06.86 1.5.58.44 2.16 1.25 4.72 2.42 2.46 1.1 4.17 2.29 5.12 3.57.96 1.26 1.44 2.86 1.44 4.78zm14.85 3.027c1.03 0 2.26-.254 3.69-.762v5.57c-1.027.44-2.01.76-2.948.94-.924.2-2.01.3-3.26.3-2.567 0-4.416-.62-5.548-1.87-1.133-1.26-1.7-3.19-1.7-5.8v-9.13h-2.675v-3.11l3.39-2.4 1.97-4.65h5v4.44h5.43v5.72h-5.43v8.61c0 1.43.69 2.15 2.07 2.15zm20.95-16.875c.664 0 1.296.052 1.895.156l.43.078-.684 7.207c-.62-.16-1.49-.24-2.59-.24-1.66 0-2.88.38-3.63 1.15-.75.75-1.13 1.85-1.13 3.28v10.88h-7.63V17.23h5.69l1.19 3.537h.37c.64-1.17 1.53-2.116 2.66-2.83 1.15-.73 2.3-1.096 3.46-1.096zm21.16 22.52l-.957-2.754h-.45c-.637 1.016-1.53 1.797-2.675 2.344-1.133.534-2.467.8-4.004.8-2.435 0-4.33-.702-5.684-2.11-1.354-1.418-2.03-3.417-2.03-5.995V17.24h7.636v12.09c0 1.445.202 2.538.605 3.28.42.743 1.1 1.114 2.04 1.114 1.32 0 2.25-.515 2.81-1.543.56-1.04.84-2.79.84-5.25v-9.69h7.64v22.13h-5.76zm31.91-22.128v3.69l-3.027 1.114c.416.755.625 1.634.625 2.636 0 2.383-.84 4.232-2.52 5.547-1.666 1.315-4.16 1.973-7.48 1.973-.82 0-1.472-.052-1.953-.156-.183.338-.274.657-.274.957 0 .38.31.67.92.88.61.2 1.42.3 2.4.3h3.68c4.96 0 7.44 2.09 7.44 6.27 0 2.7-1.15 4.79-3.45 6.29-2.29 1.5-5.51 2.25-9.67 2.25-3.13 0-5.56-.52-7.26-1.58-1.69-1.04-2.54-2.54-2.54-4.51 0-2.64 1.64-4.35 4.93-5.12-.67-.28-1.27-.74-1.77-1.38-.49-.64-.74-1.27-.74-1.89 0-.69.19-1.29.57-1.81.38-.53 1.16-1.16 2.36-1.89-1.14-.5-2.05-1.3-2.71-2.38-.65-1.08-.98-2.39-.98-3.94 0-2.41.82-4.27 2.46-5.6 1.64-1.32 3.99-1.99 7.03-1.99.41 0 1.1.05 2.09.14.99.09 1.72.18 2.19.26h7.72zM294.5 42.12c0 .625.34 1.126 1.016 1.504.677.39 1.582.586 2.714.586 1.85 0 3.327-.235 4.434-.703 1.12-.457 1.68-1.05 1.68-1.78 0-.585-.34-1-1.016-1.25-.677-.233-1.647-.35-2.91-.35h-2.988c-.82 0-1.517.19-2.09.566-.56.39-.84.866-.84 1.426zm2.4-17.637c0 2.266.788 3.398 2.363 3.398.73 0 1.29-.28 1.68-.84.404-.56.605-1.4.605-2.52 0-2.29-.76-3.43-2.285-3.43-1.575 0-2.363 1.13-2.363 3.4zm38.5-7.243v3.69l-3.027 1.114c.416.755.625 1.634.625 2.636 0 2.383-.84 4.232-2.52 5.547-1.666 1.315-4.16 1.973-7.48 1.973-.82 0-1.472-.052-1.953-.156-.183.338-.274.657-.274.957 0 .38.31.67.92.88.61.2 1.42.3 2.4.3h3.68c4.96 0 7.44 2.09 7.44 6.27 0 2.7-1.15 4.79-3.45 6.29-2.29 1.5-5.51 2.25-9.67 2.25-3.13 0-5.56-.52-7.26-1.58-1.69-1.04-2.54-2.54-2.54-4.51 0-2.64 1.64-4.35 4.93-5.12-.67-.28-1.27-.74-1.77-1.38-.49-.64-.74-1.27-.74-1.89 0-.69.19-1.29.57-1.81.38-.53 1.16-1.16 2.36-1.89-1.14-.5-2.05-1.3-2.71-2.38-.65-1.08-.98-2.39-.98-3.94 0-2.41.82-4.27 2.46-5.6 1.64-1.32 3.99-1.99 7.03-1.99.41 0 1.1.05 2.09.14.99.09 1.72.18 2.19.26h7.72zm-16.68 24.88c0 .625.34 1.126 1.016 1.504.677.39 1.582.586 2.714.586 1.85 0 3.327-.235 4.434-.703 1.12-.457 1.68-1.05 1.68-1.78 0-.585-.34-1-1.016-1.25-.677-.233-1.647-.35-2.91-.35h-2.988c-.82 0-1.517.19-2.09.566-.56.39-.84.866-.84 1.426zm2.402-17.637c0 2.266.788 3.398 2.364 3.398.73 0 1.29-.28 1.68-.84.403-.56.605-1.4.605-2.52 0-2.29-.76-3.43-2.28-3.43-1.57 0-2.36 1.13-2.36 3.4zm17.62-15.506h7.638v30.39h-7.637zM362.39 39.76c-3.685 0-6.55-.978-8.594-2.93-2.03-1.967-3.047-4.76-3.047-8.38 0-3.737.94-6.6 2.83-8.593 1.89-2.006 4.58-3.008 8.08-3.008 3.33 0 5.9.87 7.71 2.61 1.82 1.73 2.73 4.23 2.73 7.5v3.4h-13.65c.05 1.23.5 2.2 1.34 2.91.86.7 2.02 1.05 3.5 1.05 1.34 0 2.57-.13 3.69-.37 1.13-.26 2.35-.7 3.67-1.31v5.49c-1.2.61-2.44 1.03-3.71 1.27-1.28.23-2.8.35-4.57.35zm-.45-17.716c-.898 0-1.653.286-2.265.86-.6.56-.95 1.445-1.055 2.656h6.563c-.026-1.068-.332-1.92-.918-2.56-.573-.637-1.348-.956-2.324-.956z"/>
  <g fill-rule="nonzero">
    <path fill="#EB3349" stroke="#fff" d="M29.334 29.2c0 1.772-.45 3.347-1.348 4.728-.898 1.367-2.194 2.435-3.886 3.203-1.693.76-3.68 1.14-5.957 1.14-1.9 0-3.497-.13-4.786-.39-1.29-.27-2.63-.74-4.023-1.4V29.6c1.47.754 3 1.346 4.59 1.776 1.588.418 3.047.626 4.375.626 1.14 0 1.98-.194 2.51-.585.53-.405.8-.92.8-1.544 0-.39-.11-.73-.33-1.015-.21-.3-.56-.6-1.04-.9-.47-.3-1.73-.91-3.79-1.836-1.86-.847-3.26-1.668-4.2-2.46-.93-.796-1.62-1.708-2.07-2.736-.45-1.03-.67-2.25-.67-3.654 0-2.63.95-4.68 2.87-6.154 1.91-1.47 4.54-2.207 7.89-2.207 2.95 0 5.97.69 9.04 2.05l-2.37 5.96c-2.67-1.22-4.98-1.83-6.92-1.83-1 0-1.73.18-2.19.53-.46.36-.69.79-.69 1.31 0 .56.29 1.06.86 1.51.59.45 2.16 1.25 4.73 2.42 2.46 1.11 4.16 2.3 5.12 3.58.96 1.27 1.44 2.86 1.44 4.79zm14.082 9.064c-3.62 0-6.367-.977-8.242-2.93-1.862-1.953-2.793-4.76-2.793-8.418 0-3.672 1.01-6.517 3.03-8.535 2.02-2.01 4.89-3.02 8.62-3.02 2.57 0 4.98.56 7.25 1.68l-2.24 5.65c-.92-.4-1.77-.72-2.55-.95-.78-.24-1.59-.37-2.44-.37-1.23 0-2.19.48-2.87 1.45-.67.97-1.01 2.33-1.01 4.09 0 3.54 1.31 5.31 3.93 5.31 2.24 0 4.39-.65 6.45-1.95v6.08c-1.96 1.31-4.33 1.96-7.09 1.96zm25.918-.39l-1.465-2.93h-.16c-1.03 1.275-2.08 2.15-3.15 2.617-1.07.47-2.45.71-4.14.71-2.09 0-3.73-.62-4.92-1.87-1.2-1.25-1.8-3.01-1.8-5.27 0-2.35.82-4.11 2.46-5.25 1.64-1.15 4.01-1.81 7.13-1.95l3.69-.12v-.31c0-1.82-.9-2.73-2.7-2.73-1.62 0-3.67.55-6.15 1.64l-2.21-5.04c2.57-1.33 5.83-1.99 9.76-1.99 2.84 0 5.03.71 6.58 2.11 1.56 1.41 2.34 3.37 2.34 5.9V37.9h-5.29zm-5.664-5c.924 0 1.712-.294 2.363-.88.664-.586.996-1.348.996-2.285v-1.72l-1.76.07c-2.52.09-3.77 1.01-3.77 2.77 0 1.35.72 2.03 2.17 2.03zM79.822 7.48h7.637v30.39h-7.64zm23.648 30.782c-3.685 0-6.55-.977-8.594-2.93-2.03-1.966-3.047-4.76-3.047-8.38 0-3.736.94-6.6 2.83-8.592 1.89-2.006 4.58-3.008 8.08-3.008 3.33 0 5.9.872 7.71 2.617 1.82 1.73 2.73 4.23 2.73 7.5v3.4H99.54c.053 1.23.5 2.2 1.348 2.91.86.7 2.025 1.05 3.496 1.05 1.34 0 2.572-.13 3.692-.37 1.13-.26 2.355-.7 3.67-1.31v5.49c-1.197.61-2.434 1.03-3.71 1.27-1.276.23-2.8.35-4.57.35zm-.45-17.715c-.898 0-1.653.284-2.265.857-.6.56-.95 1.446-1.055 2.657h6.563c-.026-1.06-.332-1.92-.918-2.56-.573-.63-1.348-.95-2.324-.95zm31.63 10.526c0 2.37-.807 4.16-2.422 5.37-1.614 1.212-3.932 1.818-6.953 1.818-1.64 0-3.066-.09-4.277-.27-1.21-.17-2.448-.49-3.71-.95v-6.11c1.184.52 2.48.95 3.885 1.29 1.42.34 2.683.51 3.79.51 1.653 0 2.48-.37 2.48-1.13 0-.39-.234-.73-.703-1.03-.456-.31-1.797-.91-4.024-1.8-2.03-.83-3.45-1.78-4.257-2.83-.81-1.07-1.22-2.42-1.22-4.04 0-2.05.79-3.66 2.38-4.8 1.59-1.14 3.83-1.72 6.74-1.72 1.45 0 2.82.17 4.1.49 1.29.32 2.62.78 4 1.39l-2.07 4.92c-1.02-.46-2.09-.84-3.23-1.15-1.13-.33-2.06-.49-2.77-.49-1.25 0-1.88.31-1.88.92 0 .38.21.7.64.98.44.26 1.7.8 3.79 1.62 1.54.64 2.7 1.27 3.45 1.88.77.61 1.33 1.34 1.68 2.17.36.82.54 1.82.54 3.01zm35.76-4.316c0 3.62-.977 6.445-2.93 8.477-1.94 2.018-4.66 3.027-8.164 3.027-3.36 0-6.035-1.03-8.027-3.1-1.98-2.07-2.97-4.87-2.97-8.4 0-3.6.97-6.4 2.91-8.4 1.95-2 4.68-3.01 8.2-3.01 2.17 0 4.09.47 5.76 1.39 1.66.93 2.95 2.26 3.85 3.99.91 1.72 1.36 3.73 1.36 6.04zm-14.336 0c0 1.9.254 3.353.762 4.356.508.99 1.36 1.484 2.558 1.484 1.185 0 2.02-.495 2.5-1.485.495-1.002.743-2.454.743-4.355 0-1.888-.248-3.314-.743-4.277-.494-.964-1.34-1.446-2.54-1.446-1.17 0-2.01.482-2.518 1.446-.508.95-.762 2.376-.762 4.277zm32.186-5.293h-4.707V37.87h-7.637V21.467h-2.93v-3.75l3.087-1.875v-.37c0-2.918.592-5.014 1.777-6.29 1.198-1.276 3.112-1.914 5.742-1.914 1.016 0 1.973.078 2.87.234.913.156 1.967.43 3.165.82l-1.64 4.942c-.938-.26-1.856-.39-2.754-.39-.586 0-1.016.18-1.29.546-.26.352-.39.93-.39 1.738v.586h4.707v5.723zm32.56 7.733c0 1.772-.45 3.347-1.348 4.728-.898 1.367-2.194 2.435-3.886 3.203-1.693.757-3.68 1.135-5.957 1.135-1.91 0-3.5-.13-4.79-.39-1.29-.275-2.63-.743-4.03-1.407V29.59c1.47.756 3 1.348 4.59 1.778 1.58.416 3.04.624 4.37.624 1.14 0 1.98-.195 2.52-.586.53-.404.8-.918.8-1.543 0-.39-.11-.73-.33-1.016-.21-.3-.56-.6-1.04-.9-.47-.3-1.73-.91-3.79-1.836-1.86-.84-3.26-1.66-4.2-2.46-.93-.79-1.62-1.7-2.07-2.73-.45-1.03-.67-2.24-.67-3.65 0-2.63.95-4.68 2.87-6.15 1.91-1.47 4.54-2.2 7.89-2.2 2.95 0 5.97.69 9.04 2.05l-2.37 5.96c-2.67-1.22-4.98-1.83-6.92-1.83-1.01 0-1.74.18-2.19.53-.46.36-.69.79-.69 1.31 0 .56.28 1.06.86 1.51.58.44 2.16 1.25 4.72 2.42 2.46 1.11 4.16 2.3 5.12 3.57.97 1.26 1.45 2.86 1.45 4.79zm14.84 3.03c1.03 0 2.26-.255 3.69-.763v5.567c-1.027.45-2.01.76-2.948.94-.924.2-2.01.3-3.26.3-2.567 0-4.416-.62-5.548-1.87-1.133-1.26-1.7-3.19-1.7-5.8v-9.12h-2.675v-3.11l3.39-2.4 1.97-4.65h5v4.44h5.43v5.72h-5.43v8.62c0 1.44.69 2.15 2.07 2.15zm20.96-16.876c.664 0 1.296.06 1.895.16l.43.08-.684 7.21c-.62-.15-1.49-.23-2.59-.23-1.66 0-2.88.39-3.63 1.16-.75.76-1.13 1.85-1.13 3.28v10.88h-7.63V15.75h5.69l1.19 3.536h.37c.64-1.17 1.53-2.115 2.66-2.83 1.15-.73 2.3-1.095 3.46-1.095zm21.15 22.52l-.957-2.75h-.45c-.637 1.02-1.53 1.8-2.675 2.34-1.133.54-2.467.8-4.004.8-2.435 0-4.33-.7-5.684-2.11-1.354-1.42-2.03-3.41-2.03-5.99V15.75h7.636v12.09c0 1.446.202 2.54.605 3.28.42.744 1.1 1.115 2.04 1.115 1.32 0 2.25-.517 2.81-1.545.56-1.043.84-2.794.84-5.255V15.75h7.64v22.13h-5.76zm31.92-22.13v3.69l-3.027 1.12c.416.76.625 1.63.625 2.64 0 2.39-.84 4.24-2.52 5.55-1.666 1.32-4.16 1.98-7.48 1.98-.82 0-1.472-.05-1.953-.15-.183.34-.274.66-.274.96 0 .38.31.67.92.88.61.2 1.42.29 2.41.29h3.67c4.96 0 7.45 2.09 7.45 6.27 0 2.7-1.15 4.79-3.45 6.29-2.29 1.5-5.51 2.25-9.67 2.25-3.13 0-5.56-.52-7.26-1.58-1.69-1.04-2.54-2.54-2.54-4.51 0-2.64 1.64-4.35 4.93-5.12-.67-.28-1.27-.75-1.77-1.38-.49-.64-.74-1.27-.74-1.89 0-.69.19-1.29.57-1.82.38-.53 1.16-1.16 2.36-1.89-1.14-.51-2.05-1.3-2.71-2.38-.65-1.08-.98-2.39-.98-3.94 0-2.41.82-4.27 2.46-5.6 1.64-1.33 3.99-1.99 7.03-1.99.41 0 1.1.04 2.09.14.99.09 1.72.18 2.19.26h7.72zm-16.68 24.89c0 .63.34 1.13 1.016 1.51.677.4 1.582.59 2.714.59 1.85 0 3.327-.23 4.434-.7 1.12-.45 1.68-1.05 1.68-1.78 0-.58-.34-1-1.016-1.25-.677-.23-1.647-.35-2.91-.35h-2.988c-.82 0-1.517.19-2.09.57-.56.4-.84.87-.84 1.43zM295.412 23c0 2.266.788 3.398 2.364 3.398.73 0 1.29-.28 1.68-.84.403-.56.605-1.4.605-2.52 0-2.29-.76-3.435-2.28-3.435-1.57 0-2.36 1.13-2.36 3.4zm38.488-7.25v3.69l-3.027 1.117c.416.754.625 1.633.625 2.635 0 2.383-.84 4.232-2.52 5.547-1.666 1.31-4.16 1.97-7.48 1.97-.82 0-1.472-.05-1.953-.15-.183.33-.274.65-.274.95 0 .38.31.67.92.88.61.19 1.42.29 2.41.29h3.67c4.96 0 7.45 2.09 7.45 6.27 0 2.69-1.15 4.79-3.45 6.28-2.29 1.5-5.51 2.25-9.67 2.25-3.13 0-5.56-.53-7.26-1.58-1.69-1.04-2.54-2.55-2.54-4.51 0-2.65 1.64-4.35 4.93-5.12-.67-.29-1.27-.75-1.77-1.39-.49-.64-.74-1.27-.74-1.9 0-.69.19-1.3.57-1.82.38-.54 1.16-1.17 2.36-1.9-1.14-.51-2.05-1.3-2.71-2.38-.65-1.08-.98-2.4-.98-3.95 0-2.41.82-4.28 2.46-5.61 1.64-1.33 3.99-1.99 7.03-1.99.41 0 1.1.05 2.09.14.99.09 1.72.17 2.19.25h7.72zm-16.68 24.88c0 .624.34 1.125 1.016 1.503.677.392 1.582.587 2.714.587 1.85 0 3.327-.236 4.434-.704 1.12-.456 1.68-1.048 1.68-1.778 0-.586-.34-1.002-1.016-1.25-.677-.234-1.647-.35-2.91-.35h-2.988c-.82 0-1.517.188-2.09.565-.56.393-.84.868-.84 1.428zm2.402-17.638c0 2.267.788 3.4 2.364 3.4.73 0 1.29-.28 1.68-.84.403-.56.605-1.4.605-2.52 0-2.29-.76-3.437-2.28-3.437-1.57 0-2.36 1.13-2.36 3.394zm17.62-15.507h7.638v30.39h-7.637zM360.9 38.26c-3.685 0-6.55-.977-8.594-2.93-2.03-1.966-3.047-4.76-3.047-8.38 0-3.736.94-6.6 2.83-8.592 1.89-2.005 4.58-3.007 8.08-3.007 3.33 0 5.9.88 7.71 2.62 1.82 1.74 2.73 4.24 2.73 7.5v3.4h-13.65c.05 1.24.5 2.21 1.34 2.91.86.71 2.02 1.06 3.5 1.06 1.34 0 2.57-.12 3.69-.37 1.13-.26 2.35-.69 3.67-1.31v5.49c-1.2.61-2.44 1.04-3.71 1.27-1.28.24-2.8.35-4.57.35zm-.45-17.715c-.898 0-1.653.283-2.265.856-.6.56-.95 1.45-1.055 2.66h6.563c-.026-1.06-.332-1.92-.918-2.56-.573-.63-1.348-.95-2.324-.95z"/>
    <path d="M15.712 43.968c-.462 0-.827.27-1.096.81-.264.542-.396 1.294-.396 2.258 0 2.005.523 3.008 1.57 3.008.457 0 .937-.146 1.438-.438v1.433c-.422.28-.963.42-1.623.42-.975 0-1.725-.39-2.25-1.16-.52-.78-.782-1.87-.782-3.28 0-1.41.27-2.5.806-3.29.54-.79 1.29-1.18 2.25-1.18.31 0 .61.04.9.13.29.08.6.24.93.45l-.54 1.31c-.18-.13-.37-.24-.57-.34-.2-.11-.42-.16-.66-.16zM24.222 47c0 1.434-.268 2.536-.805 3.305-.537.77-1.305 1.155-2.304 1.155-1.003 0-1.773-.383-2.31-1.15-.537-.768-.805-1.876-.805-3.32 0-1.434.268-2.532.805-3.294.537-.766 1.31-1.148 2.322-1.148 1 0 1.765.384 2.298 1.154.532.766.8 1.866.8 3.3zm-4.578 0c0 .988.125 1.74.373 2.257.25.517.614.776 1.096.776.97 0 1.457-1.01 1.457-3.032 0-2.02-.482-3.03-1.445-3.03-.49 0-.86.26-1.108.78-.248.52-.373 1.27-.373 2.26zm8.936 4.34l-1.646-7.372h-.065c.07.57.11 1.09.11 1.563v5.81h-1.49v-8.65h2.47l1.48 6.81h.05l1.47-6.8h2.51v8.66h-1.53v-5.87c0-.48.02-.98.08-1.49h-.05l-1.64 7.36h-1.76zm9.523 0l-1.646-7.372h-.065c.075.57.112 1.09.112 1.563v5.81h-1.492v-8.65h2.475l1.48 6.81h.048l1.47-6.8h2.51v8.66h-1.528v-5.87c0-.48.027-.98.083-1.49h-.048l-1.64 7.36h-1.76zm11.755-8.657v5.602c0 1.03-.233 1.818-.7 2.363-.465.54-1.138.812-2.018.812-.86 0-1.516-.27-1.966-.806-.45-.54-.675-1.338-.675-2.392v-5.58h1.59v5.698c0 1.102.36 1.652 1.09 1.652.34 0 .6-.14.79-.42.18-.28.28-.68.28-1.196v-5.733h1.59zm7.562 8.657h-1.965l-2.677-6.27H52.7c.1.477.15.99.15 1.54v4.73h-1.493v-8.657h1.978l2.653 6.206h.065c-.075-.42-.113-.91-.113-1.48v-4.73h1.48v8.65zm1.83-8.657h1.517v8.658H59.25zm6.018 8.657h-1.605V44.1h-1.658v-1.415h4.92V44.1H65.27v7.243zm2.866-8.657h1.516v8.658h-1.516zm7.26 8.657H71.49v-8.657h3.904v1.392h-2.292v2.06h2.126v1.398h-2.126v2.4h2.292v1.408zm5.206-2.385c0 .81-.205 1.43-.616 1.86-.407.43-.995.645-1.765.645-.76 0-1.4-.148-1.93-.444v-1.593c.64.422 1.24.633 1.78.633.31 0 .54-.084.69-.254.15-.17.23-.4.23-.693 0-.29-.1-.56-.28-.79-.19-.24-.5-.51-.92-.8-.37-.26-.66-.5-.85-.74-.19-.24-.34-.5-.45-.8-.1-.29-.15-.63-.15-1.02 0-.74.2-1.33.61-1.77.41-.44.97-.66 1.66-.66.66 0 1.3.18 1.91.55l-.52 1.3c-.19-.11-.39-.21-.6-.3-.21-.09-.43-.13-.66-.13-.26 0-.46.08-.61.26-.14.17-.21.4-.21.7 0 .29.08.54.25.76.17.21.46.46.88.74.56.38.95.76 1.18 1.16.22.39.34.84.34 1.35zm2.86 1.113c-.205.798-.553 1.743-1.042 2.837h-1.203c.257-1.05.456-2.04.6-2.973h1.562l.083.136zm7.586 1.272L89.4 43.97h-.065c.075.57.112 1.09.112 1.563v5.81h-1.492v-8.657h2.475l1.48 6.804h.048l1.47-6.804h2.51v8.658H94.41v-5.868c0-.486.027-.983.083-1.492h-.048l-1.64 7.36h-1.76zM103.44 47c0 1.434-.268 2.536-.805 3.305-.537.77-1.305 1.155-2.304 1.155-1 0-1.77-.383-2.31-1.15-.53-.768-.8-1.876-.8-3.32 0-1.434.27-2.532.81-3.294.54-.766 1.31-1.148 2.33-1.148 1 0 1.77.384 2.3 1.154.54.766.8 1.866.8 3.3zm-4.578 0c0 .988.125 1.74.373 2.257.25.517.614.776 1.096.776.98 0 1.46-1.01 1.46-3.032 0-2.02-.48-3.03-1.44-3.03-.49 0-.86.26-1.11.78-.25.52-.37 1.27-.37 2.26zm9.378-4.317h1.623l-2.038 8.658h-2.05l-2.024-8.65h1.63l1.13 5.29c.11.45.21 1.1.31 1.94.09-.71.19-1.36.32-1.93l1.12-5.28zm6.29 8.657h-3.903v-8.657h3.903v1.392h-2.292v2.06h2.126v1.398h-2.126v2.4h2.292v1.408zm4.35 0l-1.646-7.372h-.066c.076.57.113 1.09.113 1.563v5.81h-1.49v-8.65h2.48l1.48 6.81h.05l1.47-6.8h2.51v8.66h-1.53v-5.87c0-.48.03-.98.09-1.49h-.05l-1.64 7.36h-1.76zm10.33 0h-3.903v-8.657h3.903v1.392h-2.292v2.06h2.126v1.398h-2.126v2.4h2.292v1.408zm7.33 0h-1.966l-2.677-6.27h-.077c.1.477.148.99.148 1.54v4.73h-1.492v-8.657h1.978l2.653 6.206h.065c-.075-.42-.113-.91-.113-1.48v-4.73h1.48v8.65zm4.2 0h-1.605V44.1h-1.658v-1.415h4.92V44.1h-1.657v7.243zm6.52-2.385c0 .81-.205 1.43-.616 1.86-.407.43-.995.645-1.765.645-.76 0-1.4-.148-1.93-.444v-1.593c.64.422 1.24.633 1.78.633.31 0 .54-.084.69-.254.15-.17.23-.4.23-.693 0-.29-.1-.56-.28-.79-.19-.24-.5-.51-.92-.8-.37-.26-.66-.5-.85-.74-.19-.24-.34-.5-.45-.8-.11-.29-.16-.63-.16-1.02 0-.74.2-1.33.61-1.77.41-.44.97-.65 1.66-.65.66 0 1.3.18 1.91.55l-.53 1.29c-.19-.11-.39-.21-.6-.3-.2-.09-.42-.13-.66-.13-.26 0-.46.09-.61.26-.14.17-.21.4-.21.7 0 .29.08.55.25.76.17.21.46.46.88.74.56.38.95.76 1.18 1.16.22.39.34.84.34 1.35zm2.86 1.113c-.205.798-.553 1.743-1.042 2.837h-1.203c.257-1.05.456-2.04.6-2.973h1.562l.083.136zm8.59 1.272l-.497-2.184h-2.257l-.497 2.185h-1.62l2.14-8.69h2.18l2.15 8.7h-1.61zm-.8-3.61l-.46-2.015c-.03-.122-.092-.428-.19-.918-.096-.493-.153-.823-.173-.99-.05.34-.116.716-.195 1.126-.08.407-.284 1.34-.616 2.796h1.635zm9.26 3.61h-1.966l-2.677-6.27h-.077c.1.477.148.99.148 1.54v4.73h-1.492v-8.657h1.978l2.653 6.206h.065c-.075-.42-.113-.91-.113-1.48v-4.73h1.48v8.65zm7.05-4.41c0 1.428-.292 2.522-.876 3.28-.58.754-1.418 1.13-2.51 1.13h-2.122v-8.657h2.316c1.007 0 1.79.373 2.35 1.12.562.74.842 1.784.842 3.126zm-1.652.046c0-1.934-.533-2.9-1.6-2.9h-.645v5.855h.52c.59 0 1.024-.24 1.304-.73s.42-1.23.42-2.22zm8.542-.436h2.647v4.44c-.75.32-1.547.48-2.392.48-1.007 0-1.783-.383-2.328-1.15-.54-.765-.81-1.868-.81-3.31 0-1.39.31-2.476.93-3.262.623-.786 1.493-1.18 2.61-1.18.69 0 1.35.18 1.978.534l-.51 1.315c-.49-.284-.946-.426-1.373-.426-.612 0-1.097.28-1.457.83-.355.55-.533 1.29-.533 2.23 0 .97.13 1.72.385 2.24.26.52.638.78 1.13.78.262 0 .526-.03.795-.1v-1.99h-1.072v-1.42zm3.97 4.8v-8.657h1.61v7.25h2.233v1.408h-3.843zM195.91 47c0 1.434-.268 2.536-.805 3.305-.537.77-1.305 1.155-2.304 1.155-1 0-1.77-.383-2.31-1.15-.53-.768-.8-1.876-.8-3.32 0-1.434.27-2.532.81-3.294.54-.766 1.31-1.148 2.33-1.148 1 0 1.77.384 2.3 1.154.54.766.8 1.866.8 3.3zm-4.578 0c0 .988.125 1.74.373 2.257.25.517.614.776 1.096.776.98 0 1.46-1.01 1.46-3.032 0-2.02-.48-3.03-1.44-3.03-.49 0-.86.26-1.11.78-.25.52-.37 1.27-.37 2.26zm5.848-4.317h2.21c.9 0 1.554.176 1.965.527.41.347.616.902.616 1.664 0 .502-.1.922-.32 1.262-.21.335-.51.538-.89.61v.06c.49.12.85.35 1.06.686.22.335.33.78.33 1.338 0 .786-.21 1.402-.63 1.848-.42.442-.99.663-1.72.663h-2.6v-8.65zm1.516 3.482h.74c.34 0 .58-.09.717-.272.138-.182.207-.452.207-.812 0-.35-.08-.61-.237-.76-.158-.16-.406-.23-.746-.23h-.68v2.09zm0 1.344v2.42h.81c.337 0 .586-.11.748-.31.165-.21.248-.53.248-.96 0-.78-.34-1.16-1.018-1.16h-.788zm8.744 3.83l-.497-2.19h-2.257l-.497 2.18h-1.62l2.14-8.7h2.18l2.15 8.69h-1.62zm-.8-3.61l-.46-2.02c-.03-.12-.092-.43-.19-.92-.096-.5-.153-.83-.173-.99-.05.34-.116.71-.195 1.12-.08.4-.284 1.34-.616 2.79h1.635zm3.19 3.61v-8.66h1.61v7.25h2.233v1.4h-3.843zm10.76-7.38c-.462 0-.827.27-1.096.81-.264.54-.396 1.29-.396 2.26 0 2 .523 3.01 1.57 3.01.457 0 .937-.15 1.438-.44v1.43c-.422.28-.963.42-1.622.42-.976 0-1.726-.39-2.25-1.16-.522-.78-.783-1.87-.783-3.28s.27-2.5.81-3.29 1.29-1.18 2.25-1.18c.32 0 .62.04.91.13.29.08.61.24.94.45l-.53 1.31c-.18-.13-.36-.24-.57-.33-.2-.11-.42-.16-.65-.16zM229.1 47c0 1.434-.268 2.536-.805 3.305-.537.77-1.305 1.155-2.304 1.155-1 0-1.77-.383-2.31-1.15-.53-.768-.8-1.876-.8-3.32 0-1.434.27-2.532.81-3.294.54-.766 1.31-1.148 2.33-1.148 1 0 1.77.384 2.3 1.154.54.766.8 1.866.8 3.3zm-4.578 0c0 .988.125 1.74.373 2.257.25.517.614.776 1.096.776.98 0 1.46-1.01 1.46-3.032 0-2.02-.48-3.03-1.44-3.03-.49 0-.86.26-1.11.78-.25.52-.37 1.27-.37 2.26zm11.908 4.34h-1.966l-2.677-6.27h-.077c.1.477.148.99.148 1.54v4.73h-1.492v-8.657h1.978l2.653 6.206h.065c-.075-.42-.113-.91-.113-1.48v-4.73h1.48v8.65zm7.61 0h-1.966l-2.677-6.27h-.077c.1.477.148.99.148 1.54v4.73h-1.492v-8.657h1.978l2.653 6.206h.065c-.075-.42-.113-.91-.113-1.48v-4.73h1.48v8.65zm5.44 0h-3.903v-8.657h3.903v1.392h-2.292v2.06h2.126v1.398h-2.126v2.4h2.292v1.408zm4.13-7.372c-.462 0-.827.27-1.096.81-.264.542-.396 1.294-.396 2.258 0 2.005.523 3.008 1.57 3.008.457 0 .937-.146 1.438-.438v1.433c-.422.28-.963.42-1.622.42-.976 0-1.726-.39-2.25-1.16-.522-.78-.783-1.87-.783-3.28 0-1.41.27-2.5.81-3.29s1.29-1.18 2.25-1.18c.32 0 .62.04.91.13.29.08.61.24.94.45l-.53 1.31c-.18-.13-.36-.24-.57-.34-.2-.11-.42-.16-.65-.16zm5.4 7.372h-1.605V44.1h-1.658v-1.415h4.92V44.1h-1.657v7.243zm2.87-8.657h1.516v8.658h-1.516zM271.2 47c0 1.434-.268 2.536-.805 3.305-.537.77-1.305 1.155-2.304 1.155-1 0-1.77-.383-2.31-1.15-.53-.768-.8-1.876-.8-3.32 0-1.434.27-2.532.81-3.294.54-.766 1.31-1.148 2.33-1.148 1 0 1.77.384 2.3 1.154.54.766.8 1.866.8 3.3zm-4.578 0c0 .988.125 1.74.373 2.257.25.517.614.776 1.096.776.98 0 1.46-1.01 1.46-3.032 0-2.02-.48-3.03-1.44-3.03-.49 0-.86.26-1.11.78-.25.52-.37 1.27-.37 2.26zm11.908 4.34h-1.966l-2.677-6.27h-.077c.1.477.148.99.148 1.54v4.73h-1.492v-8.657h1.978l2.653 6.206h.065c-.075-.42-.112-.91-.112-1.48v-4.73h1.48v8.65zm5.48-2.385c0 .81-.205 1.43-.616 1.86-.407.43-.995.645-1.765.645-.76 0-1.4-.148-1.93-.444v-1.593c.64.422 1.24.633 1.78.633.31 0 .54-.084.69-.254.15-.17.23-.4.23-.693 0-.29-.1-.56-.28-.79-.19-.24-.5-.51-.92-.8-.37-.26-.66-.5-.85-.74-.19-.24-.34-.5-.45-.8-.11-.29-.16-.63-.16-1.02 0-.74.2-1.33.61-1.77.41-.44.97-.65 1.66-.65.66 0 1.3.18 1.91.55l-.53 1.29c-.19-.11-.39-.21-.6-.3-.2-.09-.42-.13-.66-.13-.26 0-.46.09-.61.26-.14.17-.21.4-.21.7 0 .29.08.55.25.76.17.21.46.46.88.74.56.38.95.76 1.18 1.16.22.39.34.84.34 1.35z"/>
  </g>
  <path fill-rule="nonzero" d="M39.6 81.65v5.082c0 .935-.21 1.65-.633 2.143-.422.49-1.033.736-1.83.736-.782 0-1.376-.24-1.784-.73-.41-.49-.613-1.21-.613-2.17v-5.06h1.45v5.17c0 1 .332 1.5.994 1.5.308 0 .546-.13.714-.38.17-.25.253-.61.253-1.08v-5.2h1.45zm4.255 7.854v-3.566c0-.434-.052-.76-.156-.983-.11-.222-.28-.333-.51-.333-.31 0-.54.154-.68.462-.15.304-.22.82-.22 1.546v2.874h-1.43V83.52H42l.173.77h.09c.13-.277.314-.492.554-.646.24-.157.52-.236.845-.236.544 0 .95.186 1.22.558.27.373.407.917.407 1.633v3.9h-1.44zm4.045 0h-1.43V83.52h1.43v5.984zm-1.49-7.546c0-.237.07-.423.205-.56.14-.14.333-.208.58-.208.233 0 .42.07.56.21.14.135.208.32.208.558 0 .243-.07.433-.214.57-.15.13-.33.198-.56.198-.24 0-.43-.067-.57-.2-.14-.135-.22-.325-.22-.568zm3.67 7.546l-1.563-5.983H50l.762 3.47c.032.16.07.4.113.71.046.31.075.53.086.67h.03c.01-.1.02-.26.05-.46.03-.2.06-.38.09-.55.03-.17.31-1.44.83-3.82h1.49l-1.57 5.98H50.1zm6.15.106c-.748 0-1.34-.264-1.773-.794-.43-.533-.644-1.287-.644-2.26 0-.99.195-1.76.585-2.316.39-.555.935-.833 1.633-.833.66 0 1.17.24 1.55.715.38.472.57 1.137.57 1.993v.762h-2.88c.01.534.12.93.33 1.193.21.257.5.386.86.386.47 0 .94-.145 1.43-.435v1.18c-.46.28-1.01.42-1.65.42zm-.21-5.1c-.204 0-.372.108-.505.327-.132.214-.21.55-.23 1.004h1.45c-.008-.43-.074-.76-.2-.99-.125-.22-.297-.34-.515-.34zm5.624-1.102c.175 0 .347.027.516.08l-.167 1.386c-.1-.036-.23-.053-.392-.053-.34 0-.61.14-.8.42-.18.27-.28.67-.28 1.2v3.08H59.1v-5.99h1.176l.16.94h.05c.157-.37.33-.64.515-.8.19-.16.41-.24.65-.24zm4.376 4.345c0 .584-.17 1.04-.515 1.37-.34.325-.843.488-1.51.488-.59 0-1.08-.11-1.465-.34v-1.24c.197.14.426.25.687.34.265.09.498.14.7.14.22 0 .39-.05.503-.16.12-.11.178-.25.178-.43s-.06-.34-.183-.48c-.122-.13-.346-.3-.67-.5-.435-.25-.746-.53-.936-.82-.19-.29-.28-.64-.28-1.03 0-.5.17-.91.52-1.2.35-.3.83-.45 1.44-.45.53 0 1.03.14 1.5.42l-.47 1.03c-.39-.21-.72-.31-1.01-.31-.19 0-.32.05-.42.15-.09.1-.14.22-.14.36 0 .16.05.3.16.43.11.12.32.28.63.47.37.23.63.42.78.58.15.16.26.34.35.54.08.2.12.44.12.7zm2.354 1.75h-1.43V83.52h1.43v5.984zm-1.488-7.545c0-.237.068-.423.204-.56.14-.14.333-.208.58-.208.233 0 .42.07.56.21.14.135.208.32.208.558 0 .243-.07.433-.214.57-.144.13-.328.198-.554.198-.236 0-.426-.067-.57-.2-.142-.135-.214-.325-.214-.568zm4.79 6.445c.2 0 .418-.05.65-.15v1.117c-.232.16-.58.242-1.046.242-.52 0-.905-.154-1.155-.462-.25-.312-.376-.777-.376-1.397v-3.1h-.58v-.638l.74-.516.36-1.27h.91v1.29h1.08v1.13h-1.08v3.15c0 .4.16.6.48.6zm.882-4.883h1.482l.828 3.378c.082.3.148.722.198 1.263h.033c0-.08.01-.23.04-.45l.07-.52c.02-.12.26-1.34.74-3.66h1.5l-1.72 6.41c-.21.79-.49 1.36-.83 1.7-.35.35-.8.52-1.38.52-.29 0-.54-.03-.76-.09v-1.2c.14.05.31.07.49.07.48 0 .79-.31.94-.94l.1-.37-1.78-6.08zm12.665 2.98c0 .982-.208 1.747-.623 2.295-.415.544-.985.816-1.708.816-.458 0-.863-.12-1.214-.37-.35-.25-.62-.61-.81-1.08-.19-.47-.286-1.02-.286-1.65 0-.97.206-1.72.618-2.27.412-.55.983-.82 1.713-.82.706 0 1.266.28 1.682.84.42.56.628 1.31.628 2.26zm-3.18 0c0 .624.068 1.095.204 1.414.136.318.355.478.656.478.573 0 .86-.63.86-1.89 0-.628-.07-1.095-.21-1.403-.136-.32-.353-.47-.65-.47-.3 0-.52.15-.656.46-.136.3-.204.77-.204 1.4zm6.843-1.846h-.988v4.85h-1.43v-4.85h-.692v-.714l.693-.43v-.45c0-.667.13-1.16.41-1.484.27-.325.72-.488 1.33-.488.38 0 .74.08 1.08.24l-.38 1.092c-.18-.086-.36-.13-.55-.13-.17 0-.29.065-.36.194-.08.13-.12.328-.12.596v.44h.99v1.134zm9.952 4.85h-1.826l-.768-4.114c-.118-.563-.202-1.227-.252-1.993l-.043.397-.22 1.617-.75 4.1h-1.83l-1.43-7.85h1.43l.7 4.43c.06.45.16 1.14.27 2.09.09-.96.17-1.64.25-2.05l.83-4.46h1.51l.84 4.47c.11.66.2 1.35.26 2.07.12-1.06.21-1.76.27-2.1l.68-4.43h1.44l-1.41 7.85zm4.892 0l-.285-.816h-.032c-.21.35-.43.592-.655.725-.226.132-.51.198-.854.198-.44 0-.788-.16-1.042-.49-.25-.33-.376-.78-.376-1.37 0-.63.172-1.09.516-1.4.347-.3.864-.47 1.552-.51l.795-.03v-.43c0-.56-.25-.84-.73-.84-.36 0-.77.14-1.24.42l-.5-.99c.59-.37 1.24-.56 1.94-.56.63 0 1.11.19 1.44.55.33.36.5.88.5 1.54v4.02h-1.05zm-1.24-1.01c.26 0 .468-.116.622-.35.158-.235.237-.55.237-.94V86.7l-.45.022c-.33.018-.57.11-.72.28-.15.167-.23.418-.23.75 0 .495.17.742.52.742zm6.65-.74c0 .583-.172 1.04-.516 1.37-.34.324-.843.487-1.51.487-.59 0-1.08-.11-1.465-.34v-1.24c.19.14.42.25.68.34.26.09.5.14.7.14.22 0 .39-.05.5-.16.12-.11.17-.25.17-.43s-.06-.34-.19-.48c-.12-.13-.35-.3-.67-.5-.44-.25-.75-.53-.94-.82-.19-.29-.28-.64-.28-1.03 0-.5.17-.91.52-1.2.35-.3.83-.45 1.44-.45.53 0 1.03.14 1.49.42l-.47 1.03c-.39-.21-.72-.31-1.01-.31-.18 0-.32.05-.42.15-.09.1-.13.22-.13.36 0 .16.05.3.16.43.11.12.32.28.63.47.37.23.63.42.78.58.15.16.26.34.35.54.08.2.12.44.12.7zm3.89 1.75v-3.566c0-.878-.22-1.316-.66-1.316-.33 0-.56.173-.694.52-.132.344-.198.84-.198 1.49v2.872h-1.43v-8.357h1.43v1.858c0 .24-.022.668-.065 1.284h.075c.287-.59.727-.89 1.322-.89.548 0 .96.18 1.24.56.28.37.42.91.42 1.63v3.91h-1.44zm4.05 0h-1.43V83.52h1.43v5.984zm-1.488-7.546c0-.237.068-.423.204-.56.14-.14.333-.208.58-.208.233 0 .42.07.56.21.14.135.208.32.208.558 0 .243-.07.433-.214.57-.144.13-.328.198-.554.198-.236 0-.426-.067-.57-.2-.142-.135-.214-.325-.214-.568zm5.688 7.546v-3.566c0-.434-.052-.76-.156-.983-.104-.222-.272-.333-.505-.333-.31 0-.54.154-.68.462-.15.304-.22.82-.22 1.546v2.874h-1.43V83.52h1.13l.17.77h.09c.13-.277.31-.492.55-.646.24-.157.52-.236.84-.236.54 0 .95.186 1.22.558.27.373.4.917.4 1.633v3.9h-1.44zm6.92-5.974v.84l-.714.16c.14.25.21.566.21.945 0 .634-.173 1.13-.517 1.488-.35.358-.83.537-1.44.537-.18 0-.31-.014-.4-.043-.07.06-.14.13-.2.204-.06.08-.09.17-.09.28 0 .25.21.38.65.38h.86c.51 0 .9.14 1.17.42.27.28.41.69.41 1.24 0 .7-.24 1.23-.7 1.61-.47.38-1.14.57-2.01.57-.67 0-1.18-.14-1.53-.43-.36-.28-.54-.69-.54-1.23 0-.33.1-.62.3-.88.2-.25.48-.43.85-.54-.19-.07-.34-.18-.46-.33-.12-.15-.17-.32-.17-.53 0-.12.02-.23.05-.32.03-.1.09-.19.15-.28.07-.09.2-.22.41-.39-.25-.15-.44-.38-.59-.69-.15-.31-.22-.65-.22-1.03 0-.65.17-1.16.52-1.52.34-.36.83-.54 1.47-.54.12 0 .26.02.42.05.16.03.28.05.36.08h1.7zm-3.518 6.844c0 .236.073.417.22.542.15.13.364.194.64.194.433 0 .757-.083.97-.247.22-.165.33-.39.33-.677 0-.226-.06-.385-.178-.478-.115-.093-.33-.14-.65-.14h-.693c-.19 0-.34.072-.46.215-.11.147-.17.344-.17.59zm.44-4.9c0 .707.2 1.06.597 1.06.38 0 .58-.357.58-1.07 0-.73-.2-1.095-.58-1.095-.4 0-.6.36-.6 1.1zm5.878 2.93c.2 0 .417-.05.65-.15v1.116c-.233.16-.582.242-1.048.242-.52 0-.904-.154-1.154-.462-.25-.312-.376-.777-.376-1.397v-3.1h-.58v-.638l.746-.516.365-1.27h.914v1.29h1.085v1.13h-1.085v3.15c0 .4.16.6.483.6zm5.91-1.904c0 .982-.208 1.747-.623 2.295-.415.544-.985.816-1.708.816-.46 0-.87-.12-1.22-.37s-.62-.61-.81-1.08c-.19-.47-.29-1.02-.29-1.65 0-.97.2-1.72.61-2.27s.98-.82 1.71-.82c.7 0 1.26.28 1.68.84.42.56.62 1.31.62 2.26zm-3.18 0c0 .624.068 1.095.204 1.414.136.318.355.478.656.478.573 0 .86-.63.86-1.89 0-.628-.07-1.095-.21-1.403-.136-.32-.353-.47-.65-.47-.3 0-.52.15-.656.46-.136.3-.204.77-.204 1.4zm7.17 3.004v-3.566c0-.434-.052-.76-.156-.983-.104-.222-.272-.333-.505-.333-.31 0-.54.154-.68.462-.15.304-.22.82-.22 1.546v2.874h-1.43V83.52h1.13l.17.77h.09c.13-.277.31-.492.55-.646.24-.157.52-.236.84-.236.54 0 .95.186 1.22.558.27.373.4.917.4 1.633v3.9h-1.44zm4.31-1.154c-.186.722-.5 1.58-.945 2.572h-1.09c.232-.953.413-1.85.542-2.696h1.418l.075.123zm7.65-1.01c0 .733-.186 1.295-.56 1.685-.367.39-.9.586-1.6.586-.683 0-1.265-.13-1.745-.4v-1.44c.587.39 1.126.58 1.617.58.28 0 .49-.07.628-.23.144-.15.215-.36.215-.63 0-.26-.084-.5-.252-.71-.17-.22-.446-.46-.833-.72-.336-.23-.592-.45-.768-.66-.172-.21-.306-.45-.403-.72-.1-.26-.14-.57-.14-.92 0-.67.18-1.2.55-1.6.37-.39.88-.59 1.51-.59.6 0 1.18.17 1.73.51l-.49 1.17c-.18-.1-.36-.19-.55-.27-.19-.07-.39-.11-.6-.11-.24 0-.42.08-.55.24-.13.16-.19.37-.19.64s.07.5.22.7c.15.2.42.42.8.68.51.34.87.69 1.07 1.05.2.36.3.77.3 1.23zm3.1 2.27c-.748 0-1.34-.264-1.772-.794-.43-.533-.645-1.287-.645-2.26 0-.99.195-1.76.585-2.316.39-.555.935-.833 1.633-.833.66 0 1.17.24 1.55.715.38.472.57 1.137.57 1.993v.762H155c.01.534.12.93.327 1.193.21.257.495.386.86.386.466 0 .942-.145 1.43-.435v1.18c-.46.28-1.01.42-1.65.42zm-.21-5.1c-.204 0-.372.108-.504.326-.133.215-.21.55-.23 1.005h1.45c-.008-.43-.074-.76-.2-.99-.125-.22-.297-.34-.515-.34zm6.01 4.994l-.285-.816h-.032c-.21.35-.43.592-.655.725-.226.132-.51.198-.854.198-.44 0-.788-.16-1.042-.49-.25-.33-.376-.78-.376-1.37 0-.63.172-1.09.515-1.4.35-.3.87-.47 1.56-.51l.8-.03v-.43c0-.56-.24-.84-.72-.84-.36 0-.77.14-1.23.42l-.49-.99c.59-.37 1.24-.56 1.94-.56.63 0 1.11.19 1.44.55.34.36.5.88.5 1.54v4.02h-1.05zm-1.24-1.01c.26 0 .468-.116.622-.35.158-.235.237-.55.237-.94V86.7l-.45.022c-.33.018-.57.11-.72.28-.15.167-.23.418-.23.75 0 .495.17.742.52.742zm5.52-.09c.2 0 .417-.05.65-.15v1.116c-.233.16-.582.242-1.047.242-.52 0-.905-.154-1.155-.462-.25-.312-.376-.777-.376-1.397v-3.1h-.58v-.638l.746-.516.365-1.27h.914v1.29h1.085v1.13h-1.085v3.15c0 .4.16.6.483.6zm3.56 0c.2 0 .417-.05.65-.15v1.116c-.233.16-.582.242-1.048.242-.52 0-.904-.154-1.154-.462-.25-.312-.376-.777-.376-1.397v-3.1h-.58v-.638l.746-.516.365-1.27h.914v1.29h1.085v1.13h-1.085v3.15c0 .4.16.6.483.6zm1.49-7.257h1.43v8.357h-1.43zm4.83 8.463c-.748 0-1.34-.264-1.773-.794-.43-.533-.644-1.287-.644-2.26 0-.99.195-1.76.585-2.316.39-.555.935-.833 1.633-.833.66 0 1.17.24 1.55.715.38.472.57 1.137.57 1.993v.762h-2.87c.01.534.12.93.33 1.193.21.257.5.386.86.386.47 0 .95-.145 1.43-.435v1.18c-.46.28-1.01.42-1.65.42zm-.21-5.1c-.204 0-.372.108-.504.326-.133.215-.21.55-.23 1.005h1.45c-.008-.43-.074-.76-.2-.99-.125-.22-.297-.34-.515-.34zM63.732 75.858c-.375 0-.69-.06-.943-.176-.26-.117-.46-.277-.62-.478-.16-.2-.27-.436-.33-.706-.07-.27-.1-.555-.1-.855 0-.21.01-.45.04-.712.02-.26.07-.52.12-.79h1.21l-.02 1.22c0 .26.01.47.03.65.02.18.06.32.11.42.04.11.11.18.18.23.07.05.17.07.28.07.09 0 .17-.02.24-.05.07-.03.13-.09.18-.18.05-.08.09-.2.12-.35.02-.15.04-.34.04-.56l.02-7.79h1.52v7.58c0 .52-.06.94-.18 1.27-.12.33-.28.59-.48.77-.2.19-.42.31-.68.38-.25.07-.52.11-.79.11zm3.698-8.163h1.482v6.065c0 .355.055.602.164.74.11.14.27.21.48.21.15 0 .293-.042.434-.124.14-.082.268-.2.38-.35v-6.54h1.483v8.068h-1.13l-.147-.862h-.006c-.117.184-.24.337-.372.46-.13.123-.268.22-.41.293-.143.073-.288.124-.437.156-.14.04-.29.05-.44.05-.47 0-.83-.16-1.09-.49-.25-.33-.38-.82-.38-1.49V67.7zm5.97 0h1.143l.135.862v.006c.117-.184.243-.337.377-.46.135-.123.275-.222.42-.296.144-.074.29-.127.442-.158.15-.04.3-.05.448-.05.473 0 .837.16 1.093.49.256.33.384.82.384 1.48v6.18H76.36v-6.13c0-.36-.055-.61-.165-.74-.11-.14-.27-.21-.48-.21-.15 0-.296.05-.443.14-.146.1-.276.23-.39.4v6.53H73.4v-8.07zm7.922 8.157c-.348 0-.655-.065-.923-.194-.27-.13-.5-.33-.68-.603-.19-.274-.32-.624-.42-1.052-.1-.428-.14-.942-.14-1.544v-1.53c0-.52.04-.95.11-1.32.07-.37.17-.68.3-.92.12-.25.26-.45.42-.59.16-.15.33-.26.5-.33.17-.08.34-.13.51-.15.17-.02.32-.03.47-.03.26 0 .52.04.77.12.24.08.46.21.65.41.18.19.33.45.44.77.11.32.17.73.17 1.21 0 .16-.01.33-.02.5-.01.16-.03.33-.04.49l-.06.47-.08.42h-2.68v.82c0 .35.01.65.04.89s.07.43.14.58c.06.14.15.25.26.31.11.06.25.09.42.09.09 0 .18-.02.26-.06.08-.04.16-.1.22-.19s.11-.2.15-.35c.04-.14.06-.32.06-.53v-.25h1.23v.31c0 .76-.18 1.32-.55 1.67-.36.35-.89.52-1.58.52zm.82-4.84c.004-.043.008-.1.012-.173l.01-.23.002-.23v-.2c0-.53-.063-.92-.188-1.15-.125-.24-.31-.35-.556-.35-.13 0-.242.03-.34.09-.098.06-.178.16-.24.3-.063.14-.11.33-.14.56-.032.23-.048.52-.048.87v.5h1.488zm5.038 3.86l2.21-4.253c.204-.39.37-.73.496-1.02.127-.29.226-.54.298-.76.073-.22.122-.41.15-.57.027-.16.04-.31.04-.44 0-.21-.018-.38-.055-.52-.04-.14-.1-.25-.17-.34-.07-.08-.16-.14-.27-.18-.11-.04-.23-.05-.37-.05-.35 0-.59.14-.75.42-.16.28-.23.69-.23 1.22v.57h-1.17c-.05-.22-.08-.42-.11-.6s-.05-.38-.05-.6c0-.26.04-.51.13-.76s.22-.48.41-.68c.18-.21.42-.37.71-.5s.64-.19 1.04-.19c.43 0 .81.05 1.12.15.31.1.56.25.76.44.2.19.34.43.43.71.09.28.13.6.13.95 0 .2-.02.4-.06.6-.04.19-.1.4-.19.63-.09.22-.2.47-.34.73-.13.27-.3.57-.5.92l-1.98 3.75h2.93v1.2h-4.66v-.89zm5.814 0l2.21-4.253c.202-.39.367-.73.494-1.02.127-.29.227-.54.3-.76.07-.22.12-.41.148-.57.028-.16.04-.31.04-.44 0-.21-.017-.38-.054-.52s-.092-.25-.164-.34c-.073-.08-.163-.14-.27-.18-.107-.04-.23-.05-.372-.05-.344 0-.593.14-.747.42-.16.28-.24.69-.24 1.22v.57h-1.17c-.05-.22-.08-.42-.12-.6-.03-.17-.05-.37-.05-.59 0-.26.04-.51.13-.76.08-.25.22-.48.41-.68.19-.21.42-.37.72-.5.29-.13.64-.19 1.04-.19.44 0 .81.05 1.12.15.31.1.56.25.76.44.2.19.34.43.43.71.09.28.14.6.14.95 0 .2-.02.4-.06.6-.04.19-.1.4-.19.63-.09.22-.2.47-.34.73s-.31.57-.51.91l-1.97 3.76h2.93v1.2h-4.66v-.89zm5.953-4.312h4.365v1.19h-4.365zm5.7 4.313l2.21-4.254c.203-.39.368-.73.495-1.02.127-.29.227-.54.3-.76.07-.22.12-.41.15-.57.026-.16.04-.31.04-.44 0-.21-.02-.38-.056-.52-.037-.14-.092-.25-.164-.34-.072-.08-.162-.14-.27-.18-.107-.04-.23-.05-.372-.05-.343 0-.592.14-.747.42-.154.28-.23.69-.23 1.22v.57h-1.173c-.043-.22-.08-.42-.11-.6-.033-.18-.048-.38-.048-.6 0-.26.044-.51.132-.76.087-.25.225-.48.413-.68.187-.21.426-.37.717-.5.29-.13.64-.19 1.046-.19.438 0 .812.05 1.122.15.31.1.566.25.765.44.2.19.345.43.437.71.09.28.137.6.137.95 0 .2-.01.4-.05.6-.04.19-.1.4-.18.63-.08.22-.19.47-.33.73-.13.27-.3.57-.5.92l-1.97 3.75h2.93v1.2h-4.66v-.89zm5.953-1.166c0-.355.05-.742.148-1.16h1.183v.82c0 .477.07.82.21 1.03.14.208.37.312.69.312.32 0 .55-.12.68-.35.14-.23.2-.56.2-1v-1.93c0-.25-.02-.45-.06-.61-.04-.16-.1-.28-.17-.37-.07-.09-.16-.15-.26-.18s-.21-.05-.32-.05c-.22 0-.4.06-.56.18-.15.12-.28.27-.38.44h-1.12v-5.11h4.3v1.35h-3.04v2.47c.17-.19.37-.34.62-.44.25-.11.51-.16.78-.16.62 0 1.08.21 1.36.62.29.42.43 1.03.43 1.85v1.7c0 .51-.07.94-.2 1.29-.14.34-.31.62-.53.83-.22.21-.47.35-.76.44-.29.09-.58.13-.89.13-.37 0-.7-.05-.98-.15-.28-.1-.52-.24-.72-.43-.19-.19-.34-.41-.44-.68-.1-.27-.15-.56-.15-.89zm6.206.006h1.506l-.855 3.967h-1.236l.59-3.967zm5.256 1.16l2.21-4.254c.202-.39.367-.73.494-1.02.127-.29.227-.54.3-.76.072-.22.12-.41.15-.57.026-.16.04-.31.04-.44 0-.21-.02-.38-.056-.52-.037-.14-.092-.25-.164-.34-.072-.08-.162-.14-.27-.18-.107-.04-.23-.05-.372-.05-.343 0-.592.14-.747.42-.154.28-.23.69-.23 1.22v.57h-1.173c-.043-.22-.08-.42-.11-.6-.033-.18-.048-.38-.048-.6 0-.26.044-.51.132-.76.087-.25.225-.48.413-.68.19-.21.43-.37.72-.5s.64-.19 1.05-.19c.44 0 .81.05 1.12.15.31.1.57.25.77.44.2.19.35.43.44.71.09.28.14.6.14.95 0 .2-.01.4-.05.6-.03.19-.1.4-.18.63-.08.22-.19.47-.33.73-.13.27-.3.57-.5.92l-1.97 3.75h2.93v1.2h-4.67v-.89zm5.83-6.258c0-.437.04-.815.12-1.133.08-.32.186-.586.317-.803.13-.22.28-.4.45-.53.17-.13.35-.24.53-.31.18-.07.36-.12.54-.15.18-.03.35-.04.5-.04.14 0 .3.01.48.03.17.02.35.06.54.13.18.07.35.17.52.3.17.13.32.3.45.52.13.22.23.49.31.81.08.32.12.7.12 1.14v4.23c0 .44-.04.82-.12 1.14-.08.31-.19.58-.32.81-.14.22-.29.4-.46.54-.17.14-.35.24-.53.32-.18.08-.36.13-.54.15-.18.03-.34.04-.48.04-.16 0-.33-.02-.51-.04-.19-.03-.37-.08-.55-.16-.19-.08-.36-.18-.53-.32-.17-.14-.32-.32-.45-.54-.13-.23-.23-.5-.31-.82-.08-.32-.12-.7-.12-1.14v-4.2zm1.553 4.87c0 .414.075.714.226.902.15.187.38.28.69.28.3 0 .53-.093.68-.28.15-.188.23-.488.23-.902v-5.42c0-.438-.07-.756-.22-.955-.15-.2-.37-.3-.67-.3-.31 0-.54.1-.69.3-.15.2-.22.517-.22.955v5.42zm4.858 1.135h1.16v-6.825l-1.242 1.096-.65-.76 2.28-2.36h1.13v.01h.01v8.86h1.16v1.14h-3.82v-1.15zm7.154-7.528h-2.942V65.75h4.57v.803l-2.753 9.21h-1.647l2.772-8.67z" opacity=".6"/>
  <path fill="#fff" fill-rule="nonzero" d="M108.35 146.46h-9.325v-2.285l3.137-3.173c.897-.938 1.483-1.576 1.758-1.916.276-.346.466-.642.572-.888.11-.246.167-.504.167-.773 0-.334-.11-.598-.33-.79-.22-.195-.52-.29-.92-.29-.41 0-.82.116-1.23.35-.41.23-.88.57-1.4 1.02l-1.91-2.233c.66-.59 1.22-1.013 1.67-1.265.45-.258.94-.454 1.47-.59.53-.134 1.13-.2 1.79-.2.83 0 1.57.145 2.22.438.65.293 1.16.712 1.52 1.257.36.54.54 1.146.54 1.82 0 .503-.07.97-.19 1.397-.13.42-.32.84-.58 1.26-.27.41-.62.84-1.06 1.3-.43.46-1.36 1.32-2.79 2.6v.09h4.86v2.86zm10.6-6.4c0 2.273-.38 3.94-1.143 5-.76 1.056-1.927 1.583-3.498 1.583-1.54 0-2.7-.55-3.48-1.652-.78-1.1-1.17-2.75-1.17-4.93 0-2.28.38-3.96 1.14-5.02.76-1.06 1.93-1.6 3.5-1.6 1.53 0 2.68.56 3.46 1.67.78 1.11 1.18 2.76 1.18 4.96zm-5.827 0c0 1.453.09 2.452.272 2.997.182.545.487.817.914.817.43 0 .73-.28.91-.843.18-.56.27-1.55.27-2.97 0-1.42-.09-2.42-.28-2.98-.18-.57-.49-.86-.92-.86-.43 0-.74.28-.92.83-.18.55-.27 1.56-.27 3.03zm14.737 6.4h-3.524v-6.803c0-.826.017-1.582.052-2.267-.216.263-.486.54-.808.826l-1.46 1.204-1.8-2.215 4.41-3.595h3.13v12.85zm4.11 0l4.412-9.958h-5.563v-2.874h9.27v2.048l-4.53 10.784h-3.6zm14.77 0v-12.85h3.472v10.046h4.948v2.804h-8.42zm18.36 0l-.633-2.408h-4.175l-.65 2.408h-3.815l4.193-12.902h4.632l4.245 12.902H165.1zm-1.353-5.256l-.554-2.11c-.13-.468-.287-1.074-.475-1.82-.18-.743-.302-1.276-.36-1.598-.053.3-.158.79-.317 1.476-.15.686-.49 2.037-1.02 4.052h2.74zm20.423 5.256h-4.105l-1.23-5.6c-.06-.233-.152-.7-.28-1.396-.124-.697-.215-1.28-.274-1.75-.04.382-.12.856-.22 1.425-.1.56-.21 1.08-.31 1.55s-.52 2.39-1.27 5.76h-4.1l-3.18-12.85h3.35l1.4 6.44c.32 1.42.54 2.56.65 3.4.08-.6.21-1.41.41-2.44.2-1.03.38-1.88.55-2.55l1.14-4.86h3.22l1.1 4.86c.19.78.38 1.68.57 2.7.2 1.02.33 1.78.39 2.28.08-.65.29-1.78.63-3.39l1.42-6.46h3.35l-3.16 12.85zm10.55-10.18c-.826 0-1.47.34-1.934 1.02-.462.673-.694 1.605-.694 2.794 0 2.473.94 3.71 2.82 3.71.57 0 1.12-.08 1.654-.238.533-.158 1.07-.35 1.608-.57v2.934c-1.072.475-2.285.712-3.64.712-1.938 0-3.426-.562-4.463-1.687-1.03-1.125-1.54-2.75-1.54-4.878 0-1.33.25-2.5.75-3.507.51-1.008 1.23-1.78 2.17-2.32.95-.545 2.05-.818 3.32-.818 1.39 0 2.72.302 3.98.906l-1.06 2.733c-.47-.22-.95-.41-1.42-.56-.47-.15-.98-.23-1.53-.23zm16.96 10.18h-3.49v-5.238h-4.033v5.238h-3.49v-12.85h3.49v4.764h4.034v-4.764h3.49v12.85zm10.66 0l-.633-2.408h-4.175l-.65 2.408h-3.814l4.192-12.902h4.632l4.245 12.902h-3.797zm-1.353-5.256l-.554-2.11c-.13-.468-.287-1.074-.475-1.82-.18-.743-.302-1.276-.36-1.598-.053.3-.158.79-.317 1.476-.15.686-.49 2.037-1.02 4.052H221zm16.943-4.924c-.826 0-1.47.34-1.934 1.02-.462.673-.694 1.605-.694 2.794 0 2.473.94 3.71 2.82 3.71.57 0 1.12-.08 1.654-.238.533-.158 1.07-.35 1.608-.57v2.934c-1.072.475-2.285.712-3.64.712-1.938 0-3.426-.562-4.463-1.687-1.03-1.125-1.54-2.75-1.54-4.878 0-1.33.25-2.5.75-3.507.51-1.008 1.23-1.78 2.17-2.32.95-.545 2.05-.818 3.32-.818 1.39 0 2.72.302 3.98.906l-1.06 2.733c-.47-.22-.95-.41-1.42-.56-.47-.15-.98-.23-1.53-.23zm15.26 5.18c0 1.63-.44 2.9-1.318 3.814-.873.91-2.098 1.363-3.674 1.363-1.512 0-2.716-.466-3.612-1.398-.89-.94-1.336-2.2-1.336-3.78 0-1.63.436-2.89 1.31-3.78.878-.91 2.11-1.36 3.69-1.36.98 0 1.843.21 2.593.62.75.41 1.328 1.01 1.732 1.79.41.77.615 1.68.615 2.71zm-6.45 0c0 .855.113 1.51.342 1.96.228.445.612.668 1.15.668.534 0 .91-.223 1.126-.668.223-.45.334-1.105.334-1.96 0-.85-.11-1.49-.334-1.925-.223-.433-.604-.65-1.143-.65-.527 0-.905.217-1.133.65-.23.428-.343 1.07-.343 1.925zm14.68 5v-5.432c0-.662-.097-1.16-.29-1.494-.188-.34-.492-.51-.914-.51-.58 0-1 .232-1.257.695-.26.46-.39 1.25-.39 2.38v4.36h-3.44v-9.96h2.59l.43 1.23h.2c.29-.47.69-.82 1.21-1.06.52-.24 1.12-.35 1.79-.35 1.1 0 1.95.32 2.56.96.61.64.92 1.54.92 2.7v6.47h-3.43zm11.86-7.38h-2.118v7.383h-3.437v-7.383h-1.318v-1.687l1.39-.844v-.17c0-1.32.265-2.26.798-2.83.54-.58 1.4-.86 2.584-.86.45 0 .88.03 1.29.1.41.07.88.19 1.42.37l-.74 2.22c-.42-.12-.84-.18-1.24-.18-.27 0-.46.08-.58.24-.12.15-.18.42-.18.78v.26h2.12v2.57zm6.18 7.56c-1.658 0-2.947-.44-3.867-1.318-.914-.885-1.37-2.142-1.37-3.77 0-1.683.423-2.972 1.273-3.868.85-.902 2.063-1.354 3.64-1.354 1.5 0 2.656.393 3.47 1.178.82.78 1.23 1.904 1.23 3.375v1.53h-6.143c.024.556.226.993.607 1.31.387.315.91.474 1.573.474.604 0 1.157-.056 1.66-.167.51-.118 1.062-.314 1.654-.59v2.47c-.54.276-1.096.466-1.67.572-.575.105-1.26.158-2.057.158zm-.202-7.972c-.404 0-.744.13-1.02.387-.27.252-.427.65-.474 1.195h2.953c-.012-.48-.15-.864-.413-1.15-.258-.288-.607-.432-1.046-.432zm12.552-2.338c.3 0 .583.023.853.07l.193.035-.308 3.244c-.28-.08-.67-.11-1.17-.11-.75 0-1.294.17-1.634.52-.34.34-.51.83-.51 1.47v4.89H285.8v-9.95h2.558l.536 1.59h.167c.29-.53.69-.96 1.2-1.28.52-.33 1.04-.49 1.56-.49zm7.23 10.31c-1.658 0-2.947-.44-3.867-1.318-.914-.885-1.37-2.142-1.37-3.77 0-1.683.424-2.972 1.273-3.868.85-.902 2.063-1.354 3.64-1.354 1.5 0 2.656.393 3.47 1.178.82.78 1.23 1.904 1.23 3.375v1.53h-6.143c.024.556.226.993.607 1.31.387.315.91.474 1.573.474.604 0 1.157-.056 1.66-.167.51-.118 1.062-.314 1.653-.59v2.47c-.54.276-1.095.466-1.67.572-.574.105-1.26.158-2.056.158zm-.202-7.972c-.404 0-.744.13-1.02.387-.27.252-.427.65-.474 1.195h2.953c-.012-.48-.15-.864-.413-1.15-.258-.288-.607-.432-1.046-.432zm12.822 7.792v-5.432c0-.662-.097-1.16-.29-1.494-.188-.34-.492-.51-.914-.51-.58 0-1 .232-1.257.695-.26.46-.39 1.25-.39 2.38v4.36h-3.44v-9.96h2.59l.43 1.23h.2c.29-.47.69-.82 1.21-1.06.52-.24 1.12-.35 1.79-.35 1.1 0 1.95.32 2.56.96.61.64.92 1.54.92 2.7v6.47h-3.44zm10.31.18c-1.63 0-2.865-.44-3.71-1.318-.837-.88-1.256-2.142-1.256-3.788 0-1.653.454-2.933 1.363-3.84.908-.91 2.2-1.364 3.876-1.364 1.154 0 2.24.252 3.26.756l-1.01 2.54c-.417-.18-.8-.325-1.152-.43-.35-.112-.71-.167-1.09-.167-.55 0-.99.21-1.29.65-.3.43-.45 1.04-.45 1.83 0 1.59.59 2.39 1.77 2.39 1.01 0 1.98-.29 2.9-.88v2.73c-.88.58-1.95.88-3.19.88zm9.97 0c-1.658 0-2.947-.44-3.867-1.318-.914-.885-1.37-2.142-1.37-3.77 0-1.683.423-2.972 1.273-3.868.85-.902 2.063-1.354 3.64-1.354 1.5 0 2.656.393 3.47 1.178.82.78 1.23 1.904 1.23 3.375v1.53h-6.143c.024.556.226.993.607 1.31.387.315.91.474 1.573.474.604 0 1.157-.056 1.66-.167.51-.118 1.062-.314 1.653-.59v2.47c-.54.276-1.095.466-1.67.572-.574.105-1.26.158-2.056.158zm-.202-7.972c-.404 0-.744.13-1.02.387-.27.252-.427.65-.474 1.195h2.953c-.012-.48-.15-.864-.413-1.15-.258-.288-.607-.432-1.046-.432z"/>
  <defs>
    <linearGradient id="a" x2="1" gradientUnits="userSpaceOnUse" gradientTransform="translate(42.42 668.5) scale(1113.78)">
      <stop offset="0%" stop-color="#EB3349"/>
      <stop offset="100%" stop-color="#F45C43"/>
    </linearGradient>
  </defs>
</svg>
