<?xml version="1.0" encoding="UTF-8" standalone="no"?>
<!-- Created with Inkscape (http://www.inkscape.org/) -->
<svg id="svg2" xmlns:rdf="http://www.w3.org/1999/02/22-rdf-syntax-ns#" xmlns="http://www.w3.org/2000/svg" height="193.91" width="1113.8" version="1.1" xmlns:cc="http://creativecommons.org/ns#" xmlns:dc="http://purl.org/dc/elements/1.1/" viewBox="0 0 1113.7859 193.91416">
 <metadata id="metadata7">
  <rdf:RDF>
   <cc:Work rdf:about="">
    <dc:format>image/svg+xml</dc:format>
    <dc:type rdf:resource="http://purl.org/dc/dcmitype/StillImage"/>
    <dc:title/>
   </cc:Work>
  </rdf:RDF>
 </metadata>
 <g id="layer1" transform="translate(-42.421 -571.54)">
  <path fill="#fff" id="path4147" d="m630.18 284.18c-0.11974-0.008-0.28499 0.61837-0.52148 1.7617-0.40954 1.98-0.76838 5.6964-0.79687 8.2598-0.0557 5.0009-1.5885 7.4902-4.6152 7.4902-0.95464 0-1.7363 0.40539-1.7363 0.90039s-0.60711 0.89844-1.3496 0.89844c-1.7904 0-1.707 0.8789 0.22461 2.3594 1.377 1.0553 1.4049 1.3214 0.22461 2.1113-0.7425 0.49694-3.4379 1.5173-5.9902 2.2676-3.9167 1.1514-4.5671 1.6434-4.1699 3.1621 0.3709 1.4183 0.0187 1.8098-1.6602 1.8418-1.1715 0.0223-3.3451 0.57881-4.8301 1.2383l-2.6992 1.1992 2.5332 1.0098c1.3935 0.55571 3.2749 1.0117 4.1797 1.0117 2.0091 0 2.9667 2.1092 1.5859 3.4902-1.3015 1.3015-0.2124 2.3001 3.957 3.6309 3.1926 1.019 3.2774 1.1662 4.2812 7.5332 3.7826 23.991 5.2281 48.559 3.8242 64.996-1.6732 19.59-3.9267 37.35-4.7402 37.35-0.42363 0-0.77149-12.15-0.77149-27v-27h-2.25c-2.25 0-2.25 0-2.25-9v-9h-14.85-14.85v9c0 8.4-0.12078 9-1.8008 9-1.7077 0-1.7988 0.59922-1.7988 11.699v11.701h-4.4473c-2.4458 0-4.698 0.40344-5.0039 0.89844-0.85835 1.3888-2.25 1.0652-2.25-0.52344 0-1.1913-1.0278-1.3751-6.3008-1.125l-6.3027 0.29883 0.002-11.43c0.002-8.8719-0.28109-11.592-1.2617-12.15-0.69489-0.39584-1.4028-1.7312-1.5742-2.9688-0.2304-1.6637-0.93245-2.3234-2.6934-2.5273-1.3098-0.15167-3.0942-1.0614-3.9648-2.0234-2.1864-2.416-8.5477-2.4276-10.053-0.0176-0.59522 0.9531-2.01 1.8647-3.1426 2.0254-1.6416 0.23284-2.0203 0.80346-1.8711 2.8106 0.11252 1.5137-0.33613 2.7188-1.125 3.0215-0.72169 0.27693-1.3125 1.4717-1.3125 2.6562 0 1.6973-0.47683 2.1543-2.25 2.1543-1.8 0-2.25 0.45-2.25 2.25 0 2.025-0.35961 2.25-3.5996 2.25h-3.5996v4.0488c0 4.05-0.00078 4.05-1.8008 2.25-1.1931-1.1931-1.8008-3.0002-1.8008-5.3594 0-3.3587-0.17759-3.5917-3.166-4.1523-1.7418-0.32677-6.0963-0.35762-9.6758-0.0684-3.5795 0.28926-8.432 0.53773-10.783 0.55273l-4.2734 0.0274v10.352c0 6.3-0.35256 10.35-0.90039 10.35-0.58182 0-0.90039-10.501-0.90039-29.701 0-23.598-0.23695-29.699-1.1562-29.699-0.84603 0-1.1212-1.6991-1.0195-6.3203 0.0765-3.4759-0.21244-6.5369-0.64258-6.8027-0.43013-0.26584-0.78792 2.6795-0.79492 6.5449-0.008 3.8655-0.31211 6.5709-0.67578 6.0117-1.1676-1.7952-10.315-3.1705-19.111-2.873-8.3442 0.28217-8.5571 0.34321-8.8652 2.5391-0.17365 1.2375-0.75265 2.5216-1.2871 2.8535-0.67131 0.41694-0.89982 9.6697-0.73828 29.926l0.23437 29.32h-9.0723c-8.4714 0-9.0703 0.11984-9.0703 1.8008 0 1.56-0.60001 1.8008-4.5 1.8008h-4.5v-8.9473c0-4.9938 0.39609-9.1934 0.89844-9.5039 0.495-0.30592 0.90039-1.7145 0.90039-3.1309 0-2.4974-0.17014-2.5922-5.625-3.1523-3.0938-0.31775-10.282-0.45145-15.975-0.29688-8.6428 0.23468-10.3 0.50354-10.045 1.6309 0.1683 0.7425 0.53224 4.2862 0.80664 7.875l0.49805 6.5254h-10.906-10.908l-1.373 2.6543c-0.79798 1.5431-1.373 4.995-1.373 8.2402 0 5.5272-0.0172 5.5674-1.7988 3.9551-1.4434-1.3063-1.8008-2.7718-1.8008-7.3984 0-9.0809-0.20728-9.252-11.25-9.252-11.237 0-11.25 0.0117-11.25 10.74 0 5.8026-0.27049 7.2832-1.3496 7.373-0.7425 0.0619-4.2099 0.16281-7.7051 0.22461l-6.3535 0.11133 0.13476-4.0488c0.20935-6.292 0.20392-6.3008-3.1016-6.3008-1.6912 0-3.2286-0.46525-3.418-1.0332-0.41705-1.2512-16.302-1.0937-16.75 0.16601-0.16095 0.45236-2.2952 1.0892-4.7441 1.4141-2.4489 0.32486-4.6699 0.94134-4.9355 1.3711-0.26561 0.42975-1.6751 0.7832-3.1309 0.7832-1.9899 0-2.6465-0.42027-2.6465-1.6914 0-3.2612-3.9076-3.8348-20.291-2.9746-8.4325 0.44282-15.641 0.45781-16.113 0.0332-1.0551-0.94813-5.3516-1.0125-6.2715-0.0937-0.3717 0.37126-5.5021 0.53133-11.4 0.35547l-10.723-0.31836-0.10547 5.7188c-0.0574 3.1459-0.28932 5.0124-0.51562 4.1465-0.4295-1.6433-2.1905-2.2756-7.4805-2.6836l-3.1484-0.24219-0.45117-13.951c-0.43953-13.625-0.49675-13.955-2.4746-14.236-1.1138-0.15817-2.0254-0.66442-2.0254-1.125 0-1.359-5.4104-0.95675-6.8789 0.51172-0.7425 0.7425-2.1313 1.3496-3.0859 1.3496-1.6617 0-1.7344 0.84523-1.7344 19.801v19.799h-5.4004c-5.16 0-5.4004 0.1-5.4004 2.25 0 1.2375-0.40539 2.25-0.90039 2.25s-0.89844-2.1995-0.89844-4.8887c0-4.2788-0.25325-4.9693-2.0254-5.5352-3.4775-1.1105-12.724-0.43386-13.824 1.0117-0.54958 0.72231-1.6179 1.3125-2.373 1.3125-0.75509 0-2.5333 0.60625-3.9512 1.3457-2.8072 1.4641-5.2046 1.7932-4.4766 0.61524 0.74391-1.2037-2.8869-3.7598-5.3398-3.7598-1.2474 0-2.5002 0.60711-2.7852 1.3496-0.72115 1.8793-5.1376 1.6898-6.9355-0.29688-0.81923-0.90523-1.4902-2.9538-1.4902-4.5527 0-1.709-0.37134-2.6785-0.90039-2.3516-0.495 0.30593-0.89844 1.5119-0.89844 2.6797 0 3.6069-0.97014 4.9707-3.5332 4.9707-2.2204 0-2.5154-0.408-3.2793-4.5508-0.46159-2.5033-1.2433-4.5527-1.7383-4.5527s-1.2767 2.0494-1.7383 4.5527l-0.83984 4.5508h-9.1504c-5.0325 0-12.248 0.26189-16.035 0.58203l-6.8867 0.58203v3.4688c0 3.0991-0.23928 3.4668-2.25 3.4668-2.1273 0-2.25-0.26922-2.25-4.9492v-4.9492h-20.25-20.25v5.3984 5.4004l-0.61057 36.365-7.0758 5.1027 0.0047 1.7349h1020.2c-0.037-4.096-0.043-9.5328-0.043-17.031v-28.729l-2.6992-0.59375c-1.485-0.32616-2.7012-1.1679-2.7012-1.8711 0-0.85519-1.0172-1.2773-3.0742-1.2773-1.6912 0-3.2099-0.39013-3.375-0.86523-0.1649-0.4751-3.54-1.1229-7.5-1.4414-5.4641-0.43942-8.1765-0.23543-11.25 0.84961-2.2275 0.78636-4.9625 1.4364-6.0762 1.4434-1.1138 0.007-2.0234 0.41711-2.0234 0.91211s-0.7993 0.90039-1.7754 0.90039c-1.6679 0-1.79 0.7437-2.0254 12.375-0.21 10.384-0.4642 12.327-1.584 12.08-0.734-0.16216-5.2966-0.46086-10.139-0.66407-7.7312-0.32447-9.3723-0.69493-13.477-3.0391-8.5233-4.8678-20.567-4.6113-27.625 0.58789-3.2349 2.3829-3.8245 2.4949-11.641 2.2207l-8.2344-0.2871v-5.8145c0-4.3381-0.34437-5.9475-1.3516-6.334-0.7425-0.28493-1.3496-1.461-1.3496-2.6152 0-1.7972-0.58041-2.1869-4.0488-2.707-3.1541-0.47299-4.0508-0.98242-4.0508-2.3047 0-1.5004-0.7241-1.6973-6.2363-1.6973-5.7832 0-6.2588 0.14785-6.5254 2.0254-0.23103 1.6266-0.95308 2.0784-3.6641 2.3027l-3.375 0.2793v10.799c0 6.97-0.31758 10.603-0.89844 10.244-0.5328-0.32927-0.90039-5.8609-0.90039-13.555v-12.996h-4.3691c-2.4024 0-6.8558-0.26012-9.8984-0.57813l-5.5332-0.57812v-8.7344-8.7324l-11.627-0.58789c-6.3948-0.32362-12.266-0.34334-13.049-0.043-1.1499 0.44128-1.4238 2.0837-1.4238 8.5508v8.0039h-3.5996c-3.5143 0-3.5996 0.0734-3.5996 3.1484 0 2.2-0.4087 3.1504-1.3516 3.1504-0.7425 0-1.3496-0.60711-1.3496-1.3496 0-1.6909-6.7486-1.768-15.299-0.17578l-5.8516 1.0879-0.24219 18.67-0.24414 18.668h-4.4805-4.4824v-17.1-17.1h-5.4004-5.4004v-3.6289c0-2.3949-0.45853-3.8045-1.3496-4.1465-0.7425-0.28493-1.3496-1.0819-1.3496-1.7715 0-0.88588-1.189-1.2539-4.0508-1.2539-3.45 0-4.0488-0.26745-4.0488-1.8008 0-1.4571-0.60039-1.7988-3.1504-1.7988-2.2 0-3.1504-0.40675-3.1504-1.3496 0-0.83999-0.84999-1.3516-2.25-1.3516-2.0767 0-2.25-0.32161-2.25-4.1758 0-5.7186-1.3593-6.5602-10.66-6.5957-6.1806-0.0236-7.9741 0.30239-10.125 1.834-2.5696 1.8298-2.6152 2.0056-2.6152 10.371v8.5078l-2.0508-1.3438c-1.7172-1.1252-2.4182-1.1534-4.2988-0.17773-2.607 1.3526-4.4492 0.98932-4.4492-0.875 0-2.0045-4.4701-10.369-5.2754-9.8711-0.39142 0.2419-1.4518 2.0801-2.3555 4.084-1.3621 3.0206-2.082 3.6426-4.207 3.6426h-2.5625v-12.502-12.502l-2.2109-0.55469c-2.0597-0.51694-2.2284-1.0018-2.4746-7.0742l-0.26368-6.5176-5.625-0.26758-5.625-0.26758-0.0137-8.7324c-0.0155-11.006-0.46555-12.781-3.2422-12.781-1.1798 0-2.1445-0.48686-2.1445-1.082 0-0.59519-1.2424-2.3661-2.7617-3.9336s-2.8735-3.6119-3.0078-4.543c-0.13589-0.9423-1.1056-1.8204-2.1875-1.9805-1.528-0.22611-1.9434 0.17163-1.9434 1.8574 0 1.2076-1.1786 3.2736-2.6992 4.7305-1.485 1.4227-2.7012 3.1196-2.7012 3.7695 0 0.69824-1.0456 1.1816-2.5566 1.1816h-2.5566l-0.5918 18.225c-0.32476 10.024-0.59089 25.211-0.59179 33.75-0.002 13.199-0.20384 15.525-1.3516 15.525-1.1398 0-1.3516-2.0948-1.3516-13.455 0-10.904-0.24993-13.597-1.3223-14.197-1.0459-0.58531-1.3772-3.3762-1.5762-13.318l-0.25-12.58h-12.602-12.6l-0.25781 7.7656-0.25977 7.7656-3.5664 0.57031-3.5664 0.57031v6.3496 6.3477l-2.4746-0.2832-2.4746-0.28516-0.19336-33.529c-0.23186-40.246 0.64677-37.421-11.496-36.965l-7.8281 0.29297 0.52344-3.1484c0.28788-1.7325 0.5282-3.8198 0.53321-4.6367 0.007-1.0356 1.374-1.8112 4.5137-2.5644 4.8561-1.165 6.1814-2.2757 4.5996-3.8574-1.8942-1.8942-0.99517-3.1058 2.6719-3.5977 2.0209-0.27106 3.932-0.75232 4.248-1.0684 0.88214-0.88214-1.6949-2.2144-5.5195-2.8535-2.7793-0.4644-3.362-0.89669-3.0117-2.2363 0.36162-1.3828-0.60835-1.9717-5.7793-3.5117-3.4169-1.0176-6.2109-2.1047-6.2109-2.416 0-0.31131 0.66903-1.3077 1.4883-2.2129 1.3992-1.5462 1.3727-1.6465-0.44922-1.6465-1.0667 0-1.9395-0.40344-1.9395-0.89844s-0.59319-0.90039-1.3164-0.90039c-0.72322 0-2.1392-0.88736-3.1484-1.9707-1.5292-1.6414-1.8532-3.2529-1.9394-9.6738-0.0548-4.0786-0.12661-5.8538-0.32618-5.8672zm6.9395 44.074c0.74888 0.0983 0.70056 1.1413 0.34961 4.7754-0.27145 2.8109-0.87054 9.4898-1.332 14.842-0.46148 5.352-1.0836 9.9762-1.3828 10.275-0.29924 0.29925-0.54492-6.1574-0.54492-14.35 0-14.341 0.07-14.914 1.877-15.387 0.44482-0.11632 0.78358-0.18902 1.0332-0.15625zm-12.438 0.4375c1.0291 0 1.3318 2.7833 1.5957 14.625 0.17931 8.0438 0.21588 14.794 0.0801 15-0.13579 0.20624-0.25533 0.20624-0.26563 0-0.0103-0.20625-0.60664-6.0446-1.3242-12.975-1.6404-15.843-1.6436-16.65-0.0859-16.65zm1.9648 78.375c0.19937-0.20624 0.36328 3.7429 0.36328 8.7754 0 5.5-0.35941 9.1484-0.90039 9.1484-0.495 0-0.90039 1.0125-0.90039 2.25s-0.43636 2.25-0.9707 2.25c-0.58324 0-0.76855-0.98872-0.46289-2.4746 0.28002-1.3612 0.95983-6.3229 1.5098-11.025 0.54993-4.7025 1.1619-8.7176 1.3613-8.9238zm456.68 60.443c-0.7145 0.008-0.918 1.292-0.918 5.084 0 5.2627-0.2219 4.1091-2.3763 4.1091-1.7711 0-2.1237 0.93187-2.1237-0.75752 0-1.9258-0.5081-2.2105-4.9355-2.7637-2.7138-0.3391-5.346-0.36204-5.8497-0.0508-0.361 0.22314-0.6609 2.2401-0.8105 4.9629h89.894v-1.7637l-17.324-0.24414c-13.143-0.18542-17.272-0.51213-17.106-1.3535 0.1209-0.61006-0.7906-1.364-2.0253-1.6738-1.2345-0.30986-2.2442-0.9239-2.2442-1.3652 0-0.44133-1.4179-0.80273-3.1504-0.80273s-3.1504 0.40539-3.1504 0.90039-0.5178 0.90039-1.1504 0.90039c-0.6324 0-1.8368 0.80305-2.6777 1.7852-1.2864 1.5024-2.2092 1.6917-5.8164 1.1973-2.358-0.32321-4.8306-1.1295-5.4941-1.793-0.6634-0.66345-1.5329-1.0043-1.9317-0.75781-0.3988 0.24648-0.9133-0.2758-1.1445-1.1602-0.2491-0.95266-1.9795-2.0748-4.2461-2.7539-2.104-0.63039-4.391-1.3638-5.082-1.6289-0.1239-0.0475-0.2359-0.0714-0.3379-0.0703z" transform="translate(0 287.36)"/>
 </g>
</svg>
