<?xml version="1.0" encoding="UTF-8" standalone="no"?>
<!-- Created with Inkscape (http://www.inkscape.org/) -->

<svg
   xmlns:dc="http://purl.org/dc/elements/1.1/"
   xmlns:cc="http://creativecommons.org/ns#"
   xmlns:rdf="http://www.w3.org/1999/02/22-rdf-syntax-ns#"
   xmlns:svg="http://www.w3.org/2000/svg"
   xmlns="http://www.w3.org/2000/svg"
   xmlns:sodipodi="http://sodipodi.sourceforge.net/DTD/sodipodi-0.dtd"
   xmlns:inkscape="http://www.inkscape.org/namespaces/inkscape"
   width="1113.7859"
   height="193.91417"
   viewBox="0 0 1113.7859 193.91416"
   id="svg2"
   version="1.1"
   inkscape:version="0.91 r13725"
   sodipodi:docname="seatle skyline.svg">
  <defs
     id="defs4" />
  <sodipodi:namedview
     id="base"
     pagecolor="#ffffff"
     bordercolor="#666666"
     borderopacity="1.0"
     inkscape:pageopacity="0.0"
     inkscape:pageshadow="2"
     inkscape:zoom="0.98994949"
     inkscape:cx="542.82842"
     inkscape:cy="153.55844"
     inkscape:document-units="px"
     inkscape:current-layer="layer2"
     showgrid="false"
     inkscape:showpageshadow="false"
     units="px"
     inkscape:window-width="1795"
     inkscape:window-height="695"
     inkscape:window-x="100"
     inkscape:window-y="108"
     inkscape:window-maximized="0"
     fit-margin-top="0"
     fit-margin-left="0"
     fit-margin-right="0"
     fit-margin-bottom="0" />
  <metadata
     id="metadata7">
    <rdf:RDF>
      <cc:Work
         rdf:about="">
        <dc:format>image/svg+xml</dc:format>
        <dc:type
           rdf:resource="http://purl.org/dc/dcmitype/StillImage" />
        <dc:title></dc:title>
      </cc:Work>
    </rdf:RDF>
  </metadata>
  <g
     inkscape:groupmode="layer"
     id="layer2"
     inkscape:label="Layer 2"
     transform="translate(-42.421145,-284.18157)" />
  <g
     inkscape:label="Layer 1"
     inkscape:groupmode="layer"
     id="layer1"
     transform="translate(-42.421145,-571.54378)">
    <path
       style="fill:#000000"
       d="m 630.17773,284.18164 c -0.11974,-0.008 -0.28499,0.61837 -0.52148,1.76172 -0.40954,1.98 -0.76838,5.69637 -0.79687,8.25976 -0.0557,5.00088 -1.58851,7.49024 -4.61524,7.49024 -0.95464,0 -1.73633,0.40539 -1.73633,0.90039 0,0.495 -0.60711,0.89844 -1.34961,0.89844 -1.79044,0 -1.70705,0.8789 0.22461,2.35937 1.37696,1.05533 1.40487,1.3214 0.22461,2.11133 -0.7425,0.49694 -3.4379,1.51729 -5.99023,2.26758 -3.91666,1.15136 -4.56707,1.64341 -4.16992,3.16211 0.3709,1.41832 0.0187,1.80979 -1.66016,1.8418 -1.17148,0.0223 -3.34508,0.57881 -4.83008,1.23828 l -2.69922,1.19922 2.53321,1.00976 c 1.39347,0.55571 3.27486,1.01172 4.17968,1.01172 2.00906,0 2.96671,2.1092 1.58594,3.49023 -1.30147,1.30147 -0.2124,2.30006 3.95703,3.63086 3.19263,1.01902 3.27736,1.16621 4.28125,7.53321 3.78265,23.99128 5.22808,48.55928 3.82422,64.99609 -1.67319,19.59042 -3.92672,37.34961 -4.74023,37.34961 -0.42363,0 -0.77149,-12.15 -0.77149,-27 l 0,-27 -2.25,0 c -2.25,0 -2.25,0 -2.25,-9 l 0,-9 -14.84961,0 -14.84961,0 0,9 c 0,8.4 -0.12078,9 -1.80078,9 -1.7077,0 -1.79883,0.59922 -1.79883,11.69922 l 0,11.70117 -4.44726,0 c -2.44579,0 -4.69798,0.40344 -5.00391,0.89844 -0.85835,1.38884 -2.25,1.06523 -2.25,-0.52344 0,-1.1913 -1.02777,-1.37506 -6.30078,-1.125 l -6.30273,0.29883 0.002,-11.42969 c 0.002,-8.8719 -0.28109,-11.59176 -1.26172,-12.15039 -0.69489,-0.39584 -1.40285,-1.73125 -1.57422,-2.96875 -0.2304,-1.66371 -0.93245,-2.32344 -2.69336,-2.52734 -1.30979,-0.15167 -3.09417,-1.06136 -3.96484,-2.02344 -2.18643,-2.41604 -8.54768,-2.42755 -10.05274,-0.0176 -0.59522,0.9531 -2.00998,1.86474 -3.14257,2.02539 -1.64159,0.23284 -2.0203,0.80346 -1.8711,2.81055 0.11252,1.51367 -0.33613,2.71876 -1.125,3.02148 -0.72169,0.27693 -1.3125,1.4717 -1.3125,2.65625 0,1.69729 -0.47683,2.1543 -2.25,2.1543 -1.8,0 -2.25,0.45 -2.25,2.25 0,2.025 -0.35961,2.25 -3.59961,2.25 l -3.59961,0 0,4.04883 c 0,4.05 -7.8e-4,4.05 -1.80078,2.25 -1.19312,-1.19313 -1.80078,-3.00015 -1.80078,-5.35938 0,-3.35871 -0.17759,-3.59171 -3.16601,-4.15234 -1.74176,-0.32677 -6.0963,-0.35762 -9.67579,-0.0684 -3.5795,0.28926 -8.43195,0.53773 -10.7832,0.55273 l -4.27344,0.0274 0,10.35156 c 0,6.3 -0.35256,10.34961 -0.90039,10.34961 -0.58182,0 -0.90039,-10.50118 -0.90039,-29.70117 0,-23.59818 -0.23695,-29.69922 -1.15625,-29.69922 -0.84603,0 -1.12121,-1.69913 -1.01953,-6.32031 0.0765,-3.47588 -0.21244,-6.53691 -0.64258,-6.80274 -0.43013,-0.26584 -0.78792,2.67946 -0.79492,6.54492 -0.008,3.86546 -0.31211,6.57086 -0.67578,6.01172 -1.16761,-1.79517 -10.31451,-3.17051 -19.11133,-2.87304 -8.34421,0.28217 -8.55709,0.34321 -8.86523,2.53906 -0.17365,1.2375 -0.75265,2.52157 -1.28711,2.85351 -0.67131,0.41694 -0.89982,9.66973 -0.73828,29.92579 l 0.23437,29.32031 -9.07226,0 c -8.47136,0 -9.07032,0.11984 -9.07032,1.80078 0,1.56 -0.60001,1.80078 -4.5,1.80078 l -4.5,0 0,-8.94727 c 0,-4.99377 0.39609,-9.19343 0.89844,-9.5039 0.495,-0.30592 0.90039,-1.71448 0.90039,-3.13086 0,-2.49736 -0.17014,-2.59215 -5.625,-3.15234 -3.09375,-0.31775 -10.28211,-0.45145 -15.97461,-0.29688 -8.64284,0.23468 -10.30044,0.50354 -10.04492,1.63086 0.1683,0.7425 0.53224,4.28625 0.80664,7.875 l 0.49805,6.52539 -10.90625,0 -10.90821,0 -1.37304,2.6543 c -0.79798,1.54312 -1.37305,4.99501 -1.37305,8.24023 0,5.52717 -0.0172,5.56743 -1.79883,3.95508 -1.44341,-1.30627 -1.80078,-2.77176 -1.80078,-7.39844 0,-9.08089 -0.20728,-9.25195 -11.25,-9.25195 -11.2371,0 -11.25,0.0117 -11.25,10.74023 0,5.80259 -0.27049,7.28315 -1.34961,7.37305 -0.7425,0.0619 -4.20994,0.16281 -7.70508,0.22461 l -6.35351,0.11133 0.13476,-4.04883 c 0.20935,-6.292 0.20392,-6.30078 -3.10156,-6.30078 -1.69124,0 -3.22865,-0.46525 -3.41797,-1.0332 -0.41705,-1.25118 -16.30174,-1.09372 -16.75,0.16601 -0.16095,0.45236 -2.29524,1.0892 -4.74414,1.41406 -2.4489,0.32486 -4.66994,0.94134 -4.93554,1.3711 -0.26561,0.42975 -1.67507,0.7832 -3.13086,0.7832 -1.98991,0 -2.64649,-0.42027 -2.64649,-1.69141 0,-3.26123 -3.90761,-3.83477 -20.29101,-2.97461 -8.43254,0.44282 -15.64081,0.45781 -16.11329,0.0332 -1.05511,-0.94813 -5.35157,-1.01253 -6.27148,-0.0937 -0.3717,0.37126 -5.50209,0.53133 -11.40039,0.35547 l -10.72266,-0.31836 -0.10547,5.71875 c -0.0574,3.14586 -0.28932,5.01239 -0.51562,4.14648 -0.4295,-1.64333 -2.19051,-2.27559 -7.48047,-2.68359 l -3.14844,-0.24219 -0.45117,-13.95117 c -0.43953,-13.62532 -0.49675,-13.95543 -2.47461,-14.23633 -1.11375,-0.15817 -2.02539,-0.66442 -2.02539,-1.125 0,-1.35904 -5.41043,-0.95675 -6.8789,0.51172 -0.7425,0.7425 -2.13129,1.34961 -3.08594,1.34961 -1.66171,0 -1.73438,0.84523 -1.73438,19.80078 l 0,19.79883 -5.40039,0 c -5.16,0 -5.40039,0.1 -5.40039,2.25 0,1.2375 -0.40539,2.25 -0.90039,2.25 -0.495,0 -0.89844,-2.19953 -0.89844,-4.88867 0,-4.27884 -0.25325,-4.96926 -2.02539,-5.53516 -3.47751,-1.11047 -12.72434,-0.43386 -13.82422,1.01172 -0.54958,0.72231 -1.61794,1.3125 -2.37304,1.3125 -0.75509,0 -2.53334,0.60625 -3.95117,1.3457 -2.80722,1.46407 -5.20459,1.79318 -4.47657,0.61524 0.74391,-1.20369 -2.88689,-3.75977 -5.33984,-3.75977 -1.24737,0 -2.50023,0.60711 -2.78516,1.34961 -0.72115,1.87928 -5.13758,1.68985 -6.93554,-0.29688 -0.81923,-0.90523 -1.49024,-2.95375 -1.49024,-4.55273 0,-1.70898 -0.37134,-2.67853 -0.90039,-2.35156 -0.495,0.30593 -0.89844,1.51186 -0.89844,2.67969 0,3.60687 -0.97014,4.9707 -3.5332,4.9707 -2.22041,0 -2.51543,-0.408 -3.2793,-4.55078 -0.46159,-2.50334 -1.24328,-4.55274 -1.73828,-4.55274 -0.495,0 -1.2767,2.0494 -1.73828,4.55274 l -0.83984,4.55078 -9.15039,0 c -5.03249,0 -12.24798,0.26189 -16.03516,0.58203 l -6.886718,0.58203 0,3.46875 c 0,3.09913 -0.23928,3.4668 -2.25,3.4668 -2.12728,0 -2.25,-0.26922 -2.25,-4.94922 l 0,-4.94922 -20.25,0 -20.25,0 0,5.39844 0,5.40039 -0.610573,36.36549 -7.075754,5.1027 0.0047,1.73493 1020.224655,0 c -0.037,-4.096 -0.043,-9.53283 -0.043,-17.03125 l 0,-28.72851 -2.6992,-0.59375 c -1.485,-0.32616 -2.7012,-1.16793 -2.7012,-1.8711 0,-0.85519 -1.0172,-1.27734 -3.0742,-1.27734 -1.6912,0 -3.2099,-0.39013 -3.375,-0.86523 -0.1649,-0.4751 -3.54,-1.12294 -7.5,-1.44141 -5.4641,-0.43942 -8.1765,-0.23543 -11.25,0.84961 -2.2275,0.78636 -4.9625,1.43636 -6.0762,1.44336 -1.1138,0.007 -2.0234,0.41711 -2.0234,0.91211 0,0.495 -0.7993,0.90039 -1.7754,0.90039 -1.6679,0 -1.79,0.7437 -2.0254,12.375 -0.21,10.38363 -0.4642,12.32748 -1.584,12.08008 -0.734,-0.16216 -5.2966,-0.46086 -10.1386,-0.66407 -7.7312,-0.32447 -9.37233,-0.69493 -13.47663,-3.03906 -8.52331,-4.86783 -20.5668,-4.61133 -27.625,0.58789 -3.23491,2.38294 -3.82448,2.49491 -11.64062,2.2207 l -8.23438,-0.2871 0,-5.81446 c 0,-4.33809 -0.34437,-5.94748 -1.35156,-6.33398 -0.7425,-0.28493 -1.34961,-1.46103 -1.34961,-2.61524 0,-1.79721 -0.58041,-2.18691 -4.04883,-2.70703 -3.15414,-0.47299 -4.05078,-0.98242 -4.05078,-2.30469 0,-1.50042 -0.7241,-1.69726 -6.23633,-1.69726 -5.78322,0 -6.25881,0.14785 -6.52539,2.02539 -0.23103,1.6266 -0.95308,2.07835 -3.66406,2.30273 l -3.375,0.2793 0,10.79883 c 0,6.97002 -0.31758,10.60316 -0.89844,10.24414 -0.5328,-0.32927 -0.90039,-5.86091 -0.90039,-13.55469 l 0,-12.99609 -4.36914,0 c -2.40237,0 -6.85583,-0.26012 -9.89844,-0.57813 l -5.5332,-0.57812 0,-8.73438 0,-8.73242 -11.62695,-0.58789 c -6.39475,-0.32362 -12.26608,-0.34334 -13.04883,-0.043 -1.14994,0.44128 -1.42383,2.08371 -1.42383,8.55078 l 0,8.00391 -3.59961,0 c -3.5143,0 -3.59961,0.0734 -3.59961,3.14844 0,2.2 -0.4087,3.15039 -1.35156,3.15039 -0.7425,0 -1.34961,-0.60711 -1.34961,-1.34961 0,-1.69093 -6.74862,-1.76803 -15.29883,-0.17578 l -5.85156,1.08789 -0.24219,18.66992 -0.24414,18.66797 -4.48047,0 -4.48242,0 0,-17.09961 0,-17.09961 -5.40039,0 -5.40039,0 0,-3.62891 c 0,-2.39487 -0.45853,-3.80454 -1.34961,-4.14648 -0.7425,-0.28493 -1.34961,-1.08194 -1.34961,-1.77148 0,-0.88588 -1.18902,-1.25391 -4.05078,-1.25391 -3.45,0 -4.04883,-0.26745 -4.04883,-1.80078 0,-1.45714 -0.60039,-1.79883 -3.15039,-1.79883 -2.19999,0 -3.15039,-0.40675 -3.15039,-1.34961 0,-0.83999 -0.84999,-1.35156 -2.25,-1.35156 -2.0767,0 -2.25,-0.32161 -2.25,-4.17578 0,-5.71865 -1.35927,-6.56021 -10.66015,-6.59571 -6.18062,-0.0236 -7.97407,0.30239 -10.125,1.83399 -2.56963,1.82979 -2.61524,2.00563 -2.61524,10.37109 l 0,8.50781 -2.05078,-1.34375 c -1.71724,-1.12518 -2.4182,-1.15341 -4.29883,-0.17773 -2.60705,1.35255 -4.44922,0.98932 -4.44922,-0.875 0,-2.00451 -4.47012,-10.36879 -5.27539,-9.87109 -0.39142,0.2419 -1.45182,2.08007 -2.35547,4.08398 -1.36207,3.02057 -2.08197,3.64258 -4.20703,3.64258 l -2.5625,0 0,-12.50196 0,-12.50195 -2.21094,-0.55469 c -2.05968,-0.51694 -2.22842,-1.00182 -2.4746,-7.07421 l -0.26368,-6.51758 -5.625,-0.26758 -5.625,-0.26758 -0.0137,-8.73242 c -0.0155,-11.00605 -0.46555,-12.78125 -3.24219,-12.78125 -1.17976,0 -2.14453,-0.48686 -2.14453,-1.08203 0,-0.59519 -1.24243,-2.36608 -2.76172,-3.9336 -1.51929,-1.5675 -2.87354,-3.6119 -3.00781,-4.54296 -0.13589,-0.9423 -1.10565,-1.82038 -2.1875,-1.98047 -1.52801,-0.22611 -1.94336,0.17163 -1.94336,1.85742 0,1.20762 -1.17858,3.2736 -2.69922,4.73047 -1.485,1.42272 -2.70117,3.11964 -2.70117,3.76953 0,0.69824 -1.04557,1.18164 -2.55664,1.18164 l -2.55664,0 -0.5918,18.22461 c -0.32476,10.02374 -0.59089,25.21125 -0.59179,33.75 -0.002,13.19895 -0.20384,15.52539 -1.35157,15.52539 -1.13981,0 -1.35156,-2.09483 -1.35156,-13.45508 0,-10.90368 -0.24993,-13.59716 -1.32226,-14.19726 -1.04587,-0.58531 -1.37723,-3.3762 -1.57618,-13.31836 l -0.25,-12.58008 -12.60156,0 -12.59961,0 -0.25781,7.76562 -0.25977,7.76563 -3.5664,0.57031 -3.56641,0.57031 0,6.34961 0,6.34766 -2.47461,-0.2832 -2.47461,-0.28516 -0.19336,-33.5293 c -0.23186,-40.24608 0.64677,-37.42061 -11.49609,-36.96484 l -7.82813,0.29297 0.52344,-3.14844 c 0.28788,-1.7325 0.5282,-3.81984 0.53321,-4.63672 0.007,-1.03563 1.37395,-1.81124 4.51367,-2.56445 4.85608,-1.16495 6.18136,-2.27567 4.59961,-3.85742 -1.89425,-1.89425 -0.99517,-3.10581 2.67187,-3.59766 2.02088,-0.27106 3.93202,-0.75232 4.24805,-1.06836 0.88214,-0.88214 -1.69489,-2.21442 -5.51953,-2.85352 -2.7793,-0.4644 -3.36204,-0.89669 -3.01172,-2.23632 0.36162,-1.38284 -0.60835,-1.97174 -5.7793,-3.51172 -3.41692,-1.0176 -6.21094,-2.1047 -6.21094,-2.41602 0,-0.31131 0.66903,-1.30767 1.48829,-2.21289 1.3992,-1.54617 1.37271,-1.64648 -0.44922,-1.64648 -1.06673,0 -1.93946,-0.40344 -1.93946,-0.89844 0,-0.495 -0.59319,-0.90039 -1.3164,-0.90039 -0.72322,0 -2.13916,-0.88736 -3.14844,-1.9707 -1.52919,-1.64139 -1.85325,-3.25287 -1.93945,-9.67383 -0.0548,-4.07863 -0.12661,-5.85384 -0.32618,-5.86719 z m 6.93946,44.07422 c 0.74888,0.0983 0.70056,1.14133 0.34961,4.77539 -0.27145,2.81094 -0.87054,9.48979 -1.33203,14.8418 -0.46148,5.35201 -1.08358,9.97615 -1.38282,10.27539 -0.29924,0.29925 -0.54492,-6.15735 -0.54492,-14.34961 0,-14.34106 0.07,-14.91421 1.87695,-15.38672 0.44482,-0.11632 0.78358,-0.18902 1.03321,-0.15625 z m -12.4375,0.4375 c 1.02906,0 1.33177,2.78329 1.5957,14.625 0.17931,8.04375 0.21588,14.79375 0.0801,15 -0.13579,0.20624 -0.25533,0.20624 -0.26563,0 -0.0103,-0.20625 -0.60664,-6.04461 -1.32422,-12.97461 -1.64039,-15.84285 -1.64357,-16.65039 -0.0859,-16.65039 z m 1.96484,78.375 c 0.19937,-0.20624 0.36328,3.7429 0.36328,8.77539 0,5.5 -0.35941,9.14844 -0.90039,9.14844 -0.495,0 -0.90039,1.0125 -0.90039,2.25 0,1.2375 -0.43636,2.25 -0.9707,2.25 -0.58324,0 -0.76855,-0.98872 -0.46289,-2.47461 0.28002,-1.36125 0.95983,-6.32289 1.50976,-11.02539 0.54993,-4.7025 1.16194,-8.71758 1.36133,-8.92383 z m 456.68167,60.44336 c -0.7145,0.008 -0.918,1.29201 -0.918,5.08398 0,5.26271 -0.2219,4.10909 -2.3763,4.10909 -1.7711,0 -2.1237,0.93187 -2.1237,-0.75752 0,-1.92578 -0.5081,-2.21052 -4.9355,-2.76368 -2.7138,-0.3391 -5.346,-0.36204 -5.8497,-0.0508 -0.361,0.22314 -0.6609,2.24008 -0.8105,4.96289 l 89.8945,0 0,-1.76367 -17.3242,-0.24414 c -13.1427,-0.18542 -17.2721,-0.51213 -17.1055,-1.35351 0.1209,-0.61006 -0.7906,-1.36396 -2.0253,-1.67383 -1.2345,-0.30986 -2.2442,-0.9239 -2.2442,-1.36524 0,-0.44133 -1.4179,-0.80273 -3.1504,-0.80273 -1.7325,0 -3.1504,0.40539 -3.1504,0.90039 0,0.495 -0.5178,0.90039 -1.1504,0.90039 -0.6324,0 -1.8368,0.80305 -2.6777,1.78516 -1.2864,1.50237 -2.2092,1.69167 -5.8164,1.19726 -2.358,-0.32321 -4.8306,-1.12951 -5.4941,-1.79297 -0.6634,-0.66345 -1.5329,-1.0043 -1.9317,-0.75781 -0.3988,0.24648 -0.9133,-0.2758 -1.1445,-1.16016 -0.2491,-0.95266 -1.9795,-2.07484 -4.2461,-2.7539 -2.104,-0.63039 -4.391,-1.36375 -5.082,-1.62891 -0.1239,-0.0475 -0.2359,-0.0714 -0.3379,-0.0703 z"
       transform="translate(0,287.36221)"
       id="path4147"
       inkscape:connector-curvature="0"
       sodipodi:nodetypes="sscsssssssscccscssssscsscccssscsssscscsssssscsssscsssssccsssssccssssccssscssscsscccccsssssccccsccscssccccccccccssssscsssssssscsssssssssccsccssscccccccccsccsscsscsscsscsccsssssscccscscscccccsscssssccccccccccsssssssssscscssscsscccccccccssssssssscccsscccccccccccccsccccssscsssscssssssssscsssssscsscssssssccscsccccccccsssscsccccccccc" />
  </g>
</svg>
